G04 (created by PCBNEW (2013-07-07 BZR 4022)-stable) date 5/10/2015 12:01:35 PM*
%MOIN*%
G04 Gerber Fmt 3.4, Leading zero omitted, Abs format*
%FSLAX34Y34*%
G01*
G70*
G90*
G04 APERTURE LIST*
%ADD10C,0.00590551*%
%ADD11R,0.069X0.069*%
%ADD12C,0.069*%
%ADD13O,0.059X0.059*%
%ADD14R,0.059X0.059*%
%ADD15R,0.0885X0.059*%
%ADD16O,0.0885X0.059*%
%ADD17O,0.069X0.069*%
%ADD18C,0.23622*%
%ADD19R,0.059X0.114*%
%ADD20R,0.114X0.059*%
%ADD21C,0.059*%
%ADD22R,0.079X0.079*%
%ADD23C,0.079*%
%ADD24C,0.04*%
%ADD25C,0.02*%
%ADD26C,0.01*%
G04 APERTURE END LIST*
G54D10*
G54D11*
X70250Y-61500D03*
G54D12*
X68250Y-61500D03*
X69250Y-61500D03*
G54D11*
X65500Y-73250D03*
G54D12*
X65500Y-75250D03*
X65500Y-74250D03*
G54D13*
X74750Y-66750D03*
X78750Y-66750D03*
X71750Y-61500D03*
X75750Y-61500D03*
X71750Y-62500D03*
X75750Y-62500D03*
X75000Y-79000D03*
X75000Y-75000D03*
X71750Y-63500D03*
X75750Y-63500D03*
X71750Y-60500D03*
X75750Y-60500D03*
X74250Y-69000D03*
X78250Y-69000D03*
X74250Y-70000D03*
X78250Y-70000D03*
X72500Y-73250D03*
X68500Y-73250D03*
X74500Y-74250D03*
X70500Y-74250D03*
X83000Y-68000D03*
X79000Y-68000D03*
X78250Y-68000D03*
G54D14*
X74250Y-68000D03*
G54D13*
X83000Y-69000D03*
X79000Y-69000D03*
X64500Y-67000D03*
X64500Y-71000D03*
X67500Y-67750D03*
X67500Y-71750D03*
X66500Y-67000D03*
X66500Y-71000D03*
X65500Y-67000D03*
X65500Y-71000D03*
X83000Y-70000D03*
X79000Y-70000D03*
X83000Y-71000D03*
X79000Y-71000D03*
G54D12*
X76250Y-79000D03*
X76250Y-75000D03*
X78750Y-65250D03*
X74750Y-65250D03*
G54D15*
X69647Y-69000D03*
G54D16*
X69647Y-70000D03*
X69647Y-71000D03*
X69647Y-72000D03*
X72352Y-72000D03*
X72352Y-71000D03*
X72352Y-69000D03*
X72352Y-70000D03*
G54D11*
X83000Y-76000D03*
G54D17*
X83000Y-72000D03*
G54D18*
X65250Y-61250D03*
X82250Y-61250D03*
X65250Y-78250D03*
X82250Y-78250D03*
G54D19*
X72750Y-66475D03*
X72750Y-65025D03*
X78750Y-76775D03*
X78750Y-78225D03*
X72750Y-77275D03*
X72750Y-78725D03*
G54D20*
X77275Y-62750D03*
X78725Y-62750D03*
G54D21*
X69787Y-66340D03*
X68212Y-65159D03*
X69000Y-66438D03*
X69000Y-65061D03*
X81037Y-74340D03*
X79462Y-73159D03*
X80250Y-74438D03*
X80250Y-73061D03*
X68212Y-76909D03*
X69787Y-78090D03*
X69000Y-76811D03*
X69000Y-78188D03*
X80909Y-66037D03*
X82090Y-64462D03*
X80811Y-65250D03*
X82188Y-65250D03*
G54D22*
X73750Y-75750D03*
G54D23*
X71750Y-75750D03*
G54D22*
X77500Y-75000D03*
G54D23*
X77500Y-73000D03*
G54D22*
X64750Y-65750D03*
G54D23*
X64750Y-63750D03*
G54D22*
X77000Y-60500D03*
G54D23*
X79000Y-60500D03*
G54D19*
X68500Y-70275D03*
X68500Y-71725D03*
G54D13*
X78250Y-71000D03*
X74250Y-71000D03*
G54D21*
X74250Y-72250D03*
X76250Y-72250D03*
G54D24*
X78250Y-68000D02*
X78250Y-69000D01*
X74250Y-68000D02*
X75250Y-68000D01*
X77250Y-70000D02*
X78250Y-71000D01*
X75250Y-68000D02*
X77250Y-70000D01*
X72500Y-70000D02*
X72000Y-70000D01*
X71500Y-69500D02*
X71500Y-68000D01*
X72000Y-70000D02*
X71500Y-69500D01*
X67500Y-71750D02*
X67500Y-69250D01*
X68750Y-68000D02*
X71500Y-68000D01*
X71500Y-68000D02*
X74250Y-68000D01*
X67500Y-69250D02*
X68750Y-68000D01*
X66500Y-71000D02*
X66750Y-71000D01*
X66750Y-71000D02*
X67500Y-71750D01*
X65500Y-71000D02*
X66500Y-71000D01*
X64500Y-71000D02*
X65500Y-71000D01*
G54D25*
X68500Y-70000D02*
X68500Y-70500D01*
X69000Y-71000D02*
X69500Y-71000D01*
X68500Y-70500D02*
X69000Y-71000D01*
G54D26*
X70500Y-74250D02*
X71500Y-74250D01*
X71500Y-74250D02*
X72500Y-73250D01*
X72500Y-73250D02*
X72500Y-72000D01*
G54D25*
X74250Y-72250D02*
X74250Y-71500D01*
X74750Y-71500D02*
X74250Y-71500D01*
X74250Y-71500D02*
X73750Y-71500D01*
X76750Y-66750D02*
X77250Y-67250D01*
X77250Y-67250D02*
X79250Y-67250D01*
X79250Y-67250D02*
X79750Y-67750D01*
X79750Y-67750D02*
X79750Y-71250D01*
X79750Y-71250D02*
X79500Y-71500D01*
X79500Y-71500D02*
X74750Y-71500D01*
X74750Y-66750D02*
X76750Y-66750D01*
X73250Y-71000D02*
X72500Y-71000D01*
X73750Y-71500D02*
X73250Y-71000D01*
G54D26*
X64500Y-67000D02*
X64500Y-66000D01*
X64500Y-66000D02*
X64750Y-65750D01*
G54D24*
X66500Y-67000D02*
X66750Y-67000D01*
X66750Y-67000D02*
X67500Y-67750D01*
X65500Y-67000D02*
X66500Y-67000D01*
X64500Y-67000D02*
X65500Y-67000D01*
X69000Y-66438D02*
X67688Y-67750D01*
X67688Y-67750D02*
X67500Y-67750D01*
X69787Y-66340D02*
X70196Y-66750D01*
X70196Y-66750D02*
X72750Y-66750D01*
X69000Y-66438D02*
X69098Y-66340D01*
X69098Y-66340D02*
X69787Y-66340D01*
X72750Y-66750D02*
X74750Y-66750D01*
X77000Y-62750D02*
X78750Y-64500D01*
X78750Y-64500D02*
X78750Y-65250D01*
X78750Y-65250D02*
X80811Y-65250D01*
X80909Y-66037D02*
X80909Y-65348D01*
X80909Y-65348D02*
X80811Y-65250D01*
G54D26*
X77000Y-62750D02*
X77000Y-60500D01*
G54D24*
X75750Y-62500D02*
X76750Y-62500D01*
X76750Y-62500D02*
X77000Y-62750D01*
X75750Y-63500D02*
X75750Y-62500D01*
X75750Y-62500D02*
X75750Y-61500D01*
X75750Y-60500D02*
X75750Y-61500D01*
G54D26*
X72750Y-77000D02*
X72750Y-76750D01*
X72750Y-76750D02*
X73750Y-75750D01*
G54D24*
X75000Y-79000D02*
X74750Y-79000D01*
X74750Y-79000D02*
X72750Y-77000D01*
X72750Y-77000D02*
X69188Y-77000D01*
X69188Y-77000D02*
X69000Y-76811D01*
X68212Y-76909D02*
X68901Y-76909D01*
X68901Y-76909D02*
X69000Y-76811D01*
X65500Y-73250D02*
X65750Y-73250D01*
X69000Y-76500D02*
X69000Y-76811D01*
X65750Y-73250D02*
X69000Y-76500D01*
X74250Y-69000D02*
X74250Y-70000D01*
X74750Y-65250D02*
X75750Y-65250D01*
X77500Y-66750D02*
X78750Y-66750D01*
X76000Y-65250D02*
X77500Y-66750D01*
X75750Y-65250D02*
X76000Y-65250D01*
X76250Y-75000D02*
X75000Y-75000D01*
G54D26*
X76750Y-74500D02*
X76500Y-74250D01*
X76750Y-74500D02*
X77250Y-75000D01*
X77500Y-75000D02*
X77250Y-75000D01*
X75250Y-74250D02*
X74500Y-74250D01*
X76500Y-74250D02*
X75250Y-74250D01*
X77500Y-75000D02*
X77500Y-75250D01*
X77500Y-75250D02*
X78750Y-76500D01*
G54D24*
X76250Y-79000D02*
X78750Y-76500D01*
X80250Y-74438D02*
X78750Y-75938D01*
X78750Y-75938D02*
X78750Y-76500D01*
X81037Y-74340D02*
X80348Y-74340D01*
X80348Y-74340D02*
X80250Y-74438D01*
X83000Y-76000D02*
X81811Y-76000D01*
X81811Y-76000D02*
X80250Y-74438D01*
X72500Y-69000D02*
X72750Y-69000D01*
X73500Y-70250D02*
X74250Y-71000D01*
X73500Y-69750D02*
X73500Y-70250D01*
X72750Y-69000D02*
X73500Y-69750D01*
X78250Y-70000D02*
X79000Y-70000D01*
X79000Y-71000D02*
X79000Y-70000D01*
X79000Y-69000D02*
X79000Y-70000D01*
X79000Y-68000D02*
X79000Y-69000D01*
X73000Y-71500D02*
X73250Y-71750D01*
X69500Y-69000D02*
X70250Y-69000D01*
X71000Y-70750D02*
X71750Y-71500D01*
X71000Y-69750D02*
X71000Y-70750D01*
X70250Y-69000D02*
X71000Y-69750D01*
G54D25*
X71750Y-71500D02*
X73000Y-71500D01*
G54D24*
X79250Y-72000D02*
X83000Y-72000D01*
X78500Y-72750D02*
X79250Y-72000D01*
X78500Y-73500D02*
X78500Y-72750D01*
X78000Y-74000D02*
X78500Y-73500D01*
X77000Y-74000D02*
X78000Y-74000D01*
X76250Y-73250D02*
X77000Y-74000D01*
X73750Y-73250D02*
X76250Y-73250D01*
X73250Y-72750D02*
X73750Y-73250D01*
X73250Y-71750D02*
X73250Y-72750D01*
X83000Y-71000D02*
X83000Y-72000D01*
X83000Y-70000D02*
X83000Y-71000D01*
X83000Y-69000D02*
X83000Y-70000D01*
X83000Y-68000D02*
X83000Y-69000D01*
X70250Y-61500D02*
X71750Y-61500D01*
X71750Y-63500D02*
X71750Y-62500D01*
X71750Y-62500D02*
X71750Y-61500D01*
X71750Y-60500D02*
X71750Y-61500D01*
M02*
