G04 (created by PCBNEW (2013-07-07 BZR 4022)-stable) date 5/10/2015 12:01:35 PM*
%MOIN*%
G04 Gerber Fmt 3.4, Leading zero omitted, Abs format*
%FSLAX34Y34*%
G01*
G70*
G90*
G04 APERTURE LIST*
%ADD10C,0.00590551*%
%ADD11C,0.006*%
%ADD12C,0.01*%
%ADD13C,0.0001*%
%ADD14C,0.005*%
%ADD15C,0.012*%
G04 APERTURE END LIST*
G54D10*
G54D11*
X66121Y-66457D02*
X65821Y-66457D01*
X66035Y-66357D01*
X65821Y-66257D01*
X66121Y-66257D01*
X66092Y-65942D02*
X66107Y-65957D01*
X66121Y-66000D01*
X66121Y-66028D01*
X66107Y-66071D01*
X66078Y-66100D01*
X66050Y-66114D01*
X65992Y-66128D01*
X65950Y-66128D01*
X65892Y-66114D01*
X65864Y-66100D01*
X65835Y-66071D01*
X65821Y-66028D01*
X65821Y-66000D01*
X65835Y-65957D01*
X65850Y-65942D01*
X65821Y-65842D02*
X65821Y-65657D01*
X65935Y-65757D01*
X65935Y-65714D01*
X65950Y-65685D01*
X65964Y-65671D01*
X65992Y-65657D01*
X66064Y-65657D01*
X66092Y-65671D01*
X66107Y-65685D01*
X66121Y-65714D01*
X66121Y-65800D01*
X66107Y-65828D01*
X66092Y-65842D01*
X65921Y-65400D02*
X66121Y-65400D01*
X65807Y-65471D02*
X66021Y-65542D01*
X66021Y-65357D01*
X65821Y-65185D02*
X65821Y-65157D01*
X65835Y-65128D01*
X65850Y-65114D01*
X65878Y-65100D01*
X65935Y-65085D01*
X66007Y-65085D01*
X66064Y-65100D01*
X66092Y-65114D01*
X66107Y-65128D01*
X66121Y-65157D01*
X66121Y-65185D01*
X66107Y-65214D01*
X66092Y-65228D01*
X66064Y-65242D01*
X66007Y-65257D01*
X65935Y-65257D01*
X65878Y-65242D01*
X65850Y-65228D01*
X65835Y-65214D01*
X65821Y-65185D01*
X65821Y-64828D02*
X65821Y-64885D01*
X65835Y-64914D01*
X65850Y-64928D01*
X65892Y-64957D01*
X65950Y-64971D01*
X66064Y-64971D01*
X66092Y-64957D01*
X66107Y-64942D01*
X66121Y-64914D01*
X66121Y-64857D01*
X66107Y-64828D01*
X66092Y-64814D01*
X66064Y-64800D01*
X65992Y-64800D01*
X65964Y-64814D01*
X65950Y-64828D01*
X65935Y-64857D01*
X65935Y-64914D01*
X65950Y-64942D01*
X65964Y-64957D01*
X65992Y-64971D01*
X65821Y-64700D02*
X65821Y-64514D01*
X65935Y-64614D01*
X65935Y-64571D01*
X65950Y-64542D01*
X65964Y-64528D01*
X65992Y-64514D01*
X66064Y-64514D01*
X66092Y-64528D01*
X66107Y-64542D01*
X66121Y-64571D01*
X66121Y-64657D01*
X66107Y-64685D01*
X66092Y-64700D01*
X65964Y-64057D02*
X65978Y-64014D01*
X65992Y-64000D01*
X66021Y-63985D01*
X66064Y-63985D01*
X66092Y-64000D01*
X66107Y-64014D01*
X66121Y-64042D01*
X66121Y-64157D01*
X65821Y-64157D01*
X65821Y-64057D01*
X65835Y-64028D01*
X65850Y-64014D01*
X65878Y-64000D01*
X65907Y-64000D01*
X65935Y-64014D01*
X65950Y-64028D01*
X65964Y-64057D01*
X65964Y-64157D01*
X66121Y-63814D02*
X66107Y-63842D01*
X66092Y-63857D01*
X66064Y-63871D01*
X65978Y-63871D01*
X65950Y-63857D01*
X65935Y-63842D01*
X65921Y-63814D01*
X65921Y-63771D01*
X65935Y-63742D01*
X65950Y-63728D01*
X65978Y-63714D01*
X66064Y-63714D01*
X66092Y-63728D01*
X66107Y-63742D01*
X66121Y-63771D01*
X66121Y-63814D01*
X66121Y-63542D02*
X66107Y-63571D01*
X66092Y-63585D01*
X66064Y-63600D01*
X65978Y-63600D01*
X65950Y-63585D01*
X65935Y-63571D01*
X65921Y-63542D01*
X65921Y-63500D01*
X65935Y-63471D01*
X65950Y-63457D01*
X65978Y-63442D01*
X66064Y-63442D01*
X66092Y-63457D01*
X66107Y-63471D01*
X66121Y-63500D01*
X66121Y-63542D01*
X66107Y-63328D02*
X66121Y-63300D01*
X66121Y-63242D01*
X66107Y-63214D01*
X66078Y-63200D01*
X66064Y-63200D01*
X66035Y-63214D01*
X66021Y-63242D01*
X66021Y-63285D01*
X66007Y-63314D01*
X65978Y-63328D01*
X65964Y-63328D01*
X65935Y-63314D01*
X65921Y-63285D01*
X65921Y-63242D01*
X65935Y-63214D01*
X65921Y-63114D02*
X65921Y-63000D01*
X65821Y-63071D02*
X66078Y-63071D01*
X66107Y-63057D01*
X66121Y-63028D01*
X66121Y-63000D01*
X66444Y-66278D02*
X66444Y-66178D01*
X66601Y-66135D02*
X66601Y-66278D01*
X66301Y-66278D01*
X66301Y-66135D01*
X66401Y-66035D02*
X66601Y-65964D01*
X66401Y-65892D01*
X66601Y-65650D02*
X66444Y-65650D01*
X66415Y-65664D01*
X66401Y-65692D01*
X66401Y-65750D01*
X66415Y-65778D01*
X66587Y-65650D02*
X66601Y-65678D01*
X66601Y-65750D01*
X66587Y-65778D01*
X66558Y-65792D01*
X66530Y-65792D01*
X66501Y-65778D01*
X66487Y-65750D01*
X66487Y-65678D01*
X66472Y-65650D01*
X66601Y-65464D02*
X66587Y-65492D01*
X66558Y-65507D01*
X66301Y-65507D01*
X66444Y-65021D02*
X66458Y-64978D01*
X66472Y-64964D01*
X66501Y-64950D01*
X66544Y-64950D01*
X66572Y-64964D01*
X66587Y-64978D01*
X66601Y-65007D01*
X66601Y-65121D01*
X66301Y-65121D01*
X66301Y-65021D01*
X66315Y-64992D01*
X66330Y-64978D01*
X66358Y-64964D01*
X66387Y-64964D01*
X66415Y-64978D01*
X66430Y-64992D01*
X66444Y-65021D01*
X66444Y-65121D01*
X66601Y-64778D02*
X66587Y-64807D01*
X66572Y-64821D01*
X66544Y-64835D01*
X66458Y-64835D01*
X66430Y-64821D01*
X66415Y-64807D01*
X66401Y-64778D01*
X66401Y-64735D01*
X66415Y-64707D01*
X66430Y-64692D01*
X66458Y-64678D01*
X66544Y-64678D01*
X66572Y-64692D01*
X66587Y-64707D01*
X66601Y-64735D01*
X66601Y-64778D01*
X66601Y-64421D02*
X66444Y-64421D01*
X66415Y-64435D01*
X66401Y-64464D01*
X66401Y-64521D01*
X66415Y-64549D01*
X66587Y-64421D02*
X66601Y-64449D01*
X66601Y-64521D01*
X66587Y-64549D01*
X66558Y-64564D01*
X66530Y-64564D01*
X66501Y-64549D01*
X66487Y-64521D01*
X66487Y-64449D01*
X66472Y-64421D01*
X66601Y-64278D02*
X66401Y-64278D01*
X66458Y-64278D02*
X66430Y-64264D01*
X66415Y-64249D01*
X66401Y-64221D01*
X66401Y-64192D01*
X66601Y-63964D02*
X66301Y-63964D01*
X66587Y-63964D02*
X66601Y-63992D01*
X66601Y-64049D01*
X66587Y-64078D01*
X66572Y-64092D01*
X66544Y-64107D01*
X66458Y-64107D01*
X66430Y-64092D01*
X66415Y-64078D01*
X66401Y-64049D01*
X66401Y-63992D01*
X66415Y-63964D01*
X66401Y-63621D02*
X66601Y-63549D01*
X66401Y-63478D01*
X66601Y-63207D02*
X66601Y-63378D01*
X66601Y-63292D02*
X66301Y-63292D01*
X66344Y-63321D01*
X66372Y-63350D01*
X66387Y-63378D01*
X70542Y-67964D02*
X70585Y-67978D01*
X70599Y-67992D01*
X70614Y-68021D01*
X70614Y-68064D01*
X70599Y-68092D01*
X70585Y-68107D01*
X70557Y-68121D01*
X70442Y-68121D01*
X70442Y-67821D01*
X70542Y-67821D01*
X70571Y-67835D01*
X70585Y-67850D01*
X70599Y-67878D01*
X70599Y-67907D01*
X70585Y-67935D01*
X70571Y-67950D01*
X70542Y-67964D01*
X70442Y-67964D01*
X70785Y-68121D02*
X70757Y-68107D01*
X70742Y-68092D01*
X70728Y-68064D01*
X70728Y-67978D01*
X70742Y-67950D01*
X70757Y-67935D01*
X70785Y-67921D01*
X70828Y-67921D01*
X70857Y-67935D01*
X70871Y-67950D01*
X70885Y-67978D01*
X70885Y-68064D01*
X70871Y-68092D01*
X70857Y-68107D01*
X70828Y-68121D01*
X70785Y-68121D01*
X71057Y-68121D02*
X71028Y-68107D01*
X71014Y-68092D01*
X71000Y-68064D01*
X71000Y-67978D01*
X71014Y-67950D01*
X71028Y-67935D01*
X71057Y-67921D01*
X71100Y-67921D01*
X71128Y-67935D01*
X71142Y-67950D01*
X71157Y-67978D01*
X71157Y-68064D01*
X71142Y-68092D01*
X71128Y-68107D01*
X71100Y-68121D01*
X71057Y-68121D01*
X71271Y-68107D02*
X71300Y-68121D01*
X71357Y-68121D01*
X71385Y-68107D01*
X71400Y-68078D01*
X71400Y-68064D01*
X71385Y-68035D01*
X71357Y-68021D01*
X71314Y-68021D01*
X71285Y-68007D01*
X71271Y-67978D01*
X71271Y-67964D01*
X71285Y-67935D01*
X71314Y-67921D01*
X71357Y-67921D01*
X71385Y-67935D01*
X71485Y-67921D02*
X71600Y-67921D01*
X71528Y-67821D02*
X71528Y-68078D01*
X71542Y-68107D01*
X71571Y-68121D01*
X71600Y-68121D01*
G54D10*
X68750Y-60000D02*
X68750Y-60500D01*
X68750Y-60500D02*
X67750Y-60500D01*
X67750Y-60500D02*
X67750Y-60000D01*
X70750Y-60000D02*
X70750Y-60500D01*
X70750Y-60500D02*
X69750Y-60500D01*
X69750Y-60500D02*
X69750Y-60000D01*
X71250Y-63500D02*
X71250Y-60000D01*
X71250Y-60000D02*
X67250Y-60000D01*
X67250Y-60000D02*
X67250Y-63500D01*
X67250Y-63500D02*
X71250Y-63500D01*
X64000Y-74750D02*
X64500Y-74750D01*
X64500Y-74750D02*
X64500Y-75750D01*
X64500Y-75750D02*
X64000Y-75750D01*
X64000Y-72750D02*
X64500Y-72750D01*
X64500Y-72750D02*
X64500Y-73750D01*
X64500Y-73750D02*
X64000Y-73750D01*
X67500Y-72250D02*
X64000Y-72250D01*
X64000Y-72250D02*
X64000Y-76250D01*
X64000Y-76250D02*
X67500Y-76250D01*
X67500Y-76250D02*
X67500Y-72250D01*
G54D12*
X74750Y-66750D02*
X75150Y-66750D01*
X75150Y-66750D02*
X75150Y-66350D01*
X75150Y-66350D02*
X78350Y-66350D01*
X78350Y-66350D02*
X78350Y-67150D01*
X78350Y-67150D02*
X75150Y-67150D01*
X75150Y-67150D02*
X75150Y-66750D01*
X78750Y-66750D02*
X78350Y-66750D01*
X71750Y-61500D02*
X72150Y-61500D01*
X72150Y-61500D02*
X72150Y-61100D01*
X72150Y-61100D02*
X75350Y-61100D01*
X75350Y-61100D02*
X75350Y-61900D01*
X75350Y-61900D02*
X72150Y-61900D01*
X72150Y-61900D02*
X72150Y-61500D01*
X75750Y-61500D02*
X75350Y-61500D01*
X71750Y-62500D02*
X72150Y-62500D01*
X72150Y-62500D02*
X72150Y-62100D01*
X72150Y-62100D02*
X75350Y-62100D01*
X75350Y-62100D02*
X75350Y-62900D01*
X75350Y-62900D02*
X72150Y-62900D01*
X72150Y-62900D02*
X72150Y-62500D01*
X75750Y-62500D02*
X75350Y-62500D01*
X75000Y-79000D02*
X75000Y-78600D01*
X75000Y-78600D02*
X74600Y-78600D01*
X74600Y-78600D02*
X74600Y-75400D01*
X74600Y-75400D02*
X75400Y-75400D01*
X75400Y-75400D02*
X75400Y-78600D01*
X75400Y-78600D02*
X75000Y-78600D01*
X75000Y-75000D02*
X75000Y-75400D01*
X71750Y-63500D02*
X72150Y-63500D01*
X72150Y-63500D02*
X72150Y-63100D01*
X72150Y-63100D02*
X75350Y-63100D01*
X75350Y-63100D02*
X75350Y-63900D01*
X75350Y-63900D02*
X72150Y-63900D01*
X72150Y-63900D02*
X72150Y-63500D01*
X75750Y-63500D02*
X75350Y-63500D01*
X71750Y-60500D02*
X72150Y-60500D01*
X72150Y-60500D02*
X72150Y-60100D01*
X72150Y-60100D02*
X75350Y-60100D01*
X75350Y-60100D02*
X75350Y-60900D01*
X75350Y-60900D02*
X72150Y-60900D01*
X72150Y-60900D02*
X72150Y-60500D01*
X75750Y-60500D02*
X75350Y-60500D01*
X74250Y-69000D02*
X74650Y-69000D01*
X74650Y-69000D02*
X74650Y-68600D01*
X74650Y-68600D02*
X77850Y-68600D01*
X77850Y-68600D02*
X77850Y-69400D01*
X77850Y-69400D02*
X74650Y-69400D01*
X74650Y-69400D02*
X74650Y-69000D01*
X78250Y-69000D02*
X77850Y-69000D01*
X74250Y-70000D02*
X74650Y-70000D01*
X74650Y-70000D02*
X74650Y-69600D01*
X74650Y-69600D02*
X77850Y-69600D01*
X77850Y-69600D02*
X77850Y-70400D01*
X77850Y-70400D02*
X74650Y-70400D01*
X74650Y-70400D02*
X74650Y-70000D01*
X78250Y-70000D02*
X77850Y-70000D01*
X72500Y-73250D02*
X72100Y-73250D01*
X72100Y-73250D02*
X72100Y-73650D01*
X72100Y-73650D02*
X68900Y-73650D01*
X68900Y-73650D02*
X68900Y-72850D01*
X68900Y-72850D02*
X72100Y-72850D01*
X72100Y-72850D02*
X72100Y-73250D01*
X68500Y-73250D02*
X68900Y-73250D01*
X74500Y-74250D02*
X74100Y-74250D01*
X74100Y-74250D02*
X74100Y-74650D01*
X74100Y-74650D02*
X70900Y-74650D01*
X70900Y-74650D02*
X70900Y-73850D01*
X70900Y-73850D02*
X74100Y-73850D01*
X74100Y-73850D02*
X74100Y-74250D01*
X70500Y-74250D02*
X70900Y-74250D01*
X83000Y-68000D02*
X82600Y-68000D01*
X82600Y-68000D02*
X82600Y-68400D01*
X82600Y-68400D02*
X79400Y-68400D01*
X79400Y-68400D02*
X79400Y-67600D01*
X79400Y-67600D02*
X82600Y-67600D01*
X82600Y-67600D02*
X82600Y-68000D01*
X79000Y-68000D02*
X79400Y-68000D01*
X78250Y-68000D02*
X77850Y-68000D01*
X77850Y-68000D02*
X77850Y-68400D01*
X77850Y-68400D02*
X74650Y-68400D01*
X74650Y-68400D02*
X74650Y-67600D01*
X74650Y-67600D02*
X77850Y-67600D01*
X77850Y-67600D02*
X77850Y-68000D01*
X74250Y-68000D02*
X74650Y-68000D01*
X83000Y-69000D02*
X82600Y-69000D01*
X82600Y-69000D02*
X82600Y-69400D01*
X82600Y-69400D02*
X79400Y-69400D01*
X79400Y-69400D02*
X79400Y-68600D01*
X79400Y-68600D02*
X82600Y-68600D01*
X82600Y-68600D02*
X82600Y-69000D01*
X79000Y-69000D02*
X79400Y-69000D01*
X64500Y-67000D02*
X64500Y-67400D01*
X64500Y-67400D02*
X64900Y-67400D01*
X64900Y-67400D02*
X64900Y-70600D01*
X64900Y-70600D02*
X64100Y-70600D01*
X64100Y-70600D02*
X64100Y-67400D01*
X64100Y-67400D02*
X64500Y-67400D01*
X64500Y-71000D02*
X64500Y-70600D01*
X67500Y-67750D02*
X67500Y-68150D01*
X67500Y-68150D02*
X67900Y-68150D01*
X67900Y-68150D02*
X67900Y-71350D01*
X67900Y-71350D02*
X67100Y-71350D01*
X67100Y-71350D02*
X67100Y-68150D01*
X67100Y-68150D02*
X67500Y-68150D01*
X67500Y-71750D02*
X67500Y-71350D01*
X66500Y-67000D02*
X66500Y-67400D01*
X66500Y-67400D02*
X66900Y-67400D01*
X66900Y-67400D02*
X66900Y-70600D01*
X66900Y-70600D02*
X66100Y-70600D01*
X66100Y-70600D02*
X66100Y-67400D01*
X66100Y-67400D02*
X66500Y-67400D01*
X66500Y-71000D02*
X66500Y-70600D01*
X65500Y-67000D02*
X65500Y-67400D01*
X65500Y-67400D02*
X65900Y-67400D01*
X65900Y-67400D02*
X65900Y-70600D01*
X65900Y-70600D02*
X65100Y-70600D01*
X65100Y-70600D02*
X65100Y-67400D01*
X65100Y-67400D02*
X65500Y-67400D01*
X65500Y-71000D02*
X65500Y-70600D01*
X83000Y-70000D02*
X82600Y-70000D01*
X82600Y-70000D02*
X82600Y-70400D01*
X82600Y-70400D02*
X79400Y-70400D01*
X79400Y-70400D02*
X79400Y-69600D01*
X79400Y-69600D02*
X82600Y-69600D01*
X82600Y-69600D02*
X82600Y-70000D01*
X79000Y-70000D02*
X79400Y-70000D01*
X83000Y-71000D02*
X82600Y-71000D01*
X82600Y-71000D02*
X82600Y-71400D01*
X82600Y-71400D02*
X79400Y-71400D01*
X79400Y-71400D02*
X79400Y-70600D01*
X79400Y-70600D02*
X82600Y-70600D01*
X82600Y-70600D02*
X82600Y-71000D01*
X79000Y-71000D02*
X79400Y-71000D01*
X77000Y-78250D02*
X77000Y-75750D01*
X75500Y-78250D02*
X75500Y-75750D01*
X76250Y-78250D02*
X75500Y-78250D01*
X75500Y-75750D02*
X77000Y-75750D01*
X77000Y-78250D02*
X76250Y-78250D01*
X76250Y-75000D02*
X76250Y-75750D01*
X76250Y-79000D02*
X76250Y-78250D01*
X78000Y-64500D02*
X75500Y-64500D01*
X78000Y-66000D02*
X75500Y-66000D01*
X78000Y-65250D02*
X78000Y-66000D01*
X75500Y-66000D02*
X75500Y-64500D01*
X78000Y-64500D02*
X78000Y-65250D01*
X74750Y-65250D02*
X75500Y-65250D01*
X78750Y-65250D02*
X78000Y-65250D01*
X71000Y-68800D02*
G75*
G03X71300Y-68500I0J300D01*
G74*
G01*
X70700Y-68500D02*
G75*
G03X71000Y-68800I300J0D01*
G74*
G01*
X72000Y-68500D02*
X72000Y-72500D01*
X72000Y-72500D02*
X70000Y-72500D01*
X70000Y-72500D02*
X70000Y-68500D01*
X70000Y-68500D02*
X72000Y-68500D01*
X83000Y-72000D02*
X83000Y-72750D01*
X83000Y-75250D02*
X83000Y-76000D01*
X83500Y-75000D02*
X82500Y-75000D01*
X82500Y-72750D02*
X82500Y-75250D01*
X83500Y-72750D02*
X82500Y-72750D01*
X83500Y-75250D02*
X82500Y-75250D01*
X83500Y-72750D02*
X83500Y-75250D01*
G54D10*
X67021Y-61250D02*
G75*
G03X67021Y-61250I-1771J0D01*
G74*
G01*
X84021Y-61250D02*
G75*
G03X84021Y-61250I-1771J0D01*
G74*
G01*
X67021Y-78250D02*
G75*
G03X67021Y-78250I-1771J0D01*
G74*
G01*
X84021Y-78250D02*
G75*
G03X84021Y-78250I-1771J0D01*
G74*
G01*
G54D12*
X74250Y-67250D02*
X74250Y-64250D01*
X71250Y-67250D02*
X71250Y-64250D01*
X71250Y-64250D02*
X74250Y-64250D01*
X71250Y-67250D02*
X74250Y-67250D01*
X77250Y-76000D02*
X77250Y-79000D01*
X80250Y-76000D02*
X80250Y-79000D01*
X80250Y-79000D02*
X77250Y-79000D01*
X80250Y-76000D02*
X77250Y-76000D01*
X71250Y-76500D02*
X71250Y-79500D01*
X74250Y-76500D02*
X74250Y-79500D01*
X74250Y-79500D02*
X71250Y-79500D01*
X74250Y-76500D02*
X71250Y-76500D01*
X76500Y-64250D02*
X79500Y-64250D01*
X76500Y-61250D02*
X79500Y-61250D01*
X79500Y-61250D02*
X79500Y-64250D01*
X76500Y-61250D02*
X76500Y-64250D01*
X71000Y-65750D02*
G75*
G03X71000Y-65750I-2000J0D01*
G74*
G01*
X82250Y-73750D02*
G75*
G03X82250Y-73750I-2000J0D01*
G74*
G01*
X71000Y-77500D02*
G75*
G03X71000Y-77500I-2000J0D01*
G74*
G01*
X83500Y-65250D02*
G75*
G03X83500Y-65250I-2000J0D01*
G74*
G01*
X74250Y-75250D02*
X71250Y-75250D01*
X74250Y-76250D02*
X74250Y-75250D01*
X71250Y-76250D02*
X71250Y-75250D01*
X74250Y-76250D02*
X71250Y-76250D01*
X78000Y-75500D02*
X78000Y-72500D01*
X77000Y-75500D02*
X78000Y-75500D01*
X77000Y-72500D02*
X78000Y-72500D01*
X77000Y-75500D02*
X77000Y-72500D01*
X65250Y-66250D02*
X65250Y-63250D01*
X64250Y-66250D02*
X65250Y-66250D01*
X64250Y-63250D02*
X65250Y-63250D01*
X64250Y-66250D02*
X64250Y-63250D01*
X76500Y-61000D02*
X79500Y-61000D01*
X76500Y-60000D02*
X76500Y-61000D01*
X79500Y-60000D02*
X79500Y-61000D01*
X76500Y-60000D02*
X79500Y-60000D01*
X68900Y-69600D02*
X68900Y-72400D01*
X68900Y-72400D02*
X68100Y-72400D01*
X68100Y-72400D02*
X68100Y-69600D01*
X68100Y-69600D02*
X68900Y-69600D01*
X78250Y-71000D02*
X77850Y-71000D01*
X77850Y-71000D02*
X77850Y-71400D01*
X77850Y-71400D02*
X74650Y-71400D01*
X74650Y-71400D02*
X74650Y-70600D01*
X74650Y-70600D02*
X77850Y-70600D01*
X77850Y-70600D02*
X77850Y-71000D01*
X74250Y-71000D02*
X74650Y-71000D01*
X73850Y-71850D02*
X76650Y-71850D01*
X76650Y-71850D02*
X76650Y-72650D01*
X76650Y-72650D02*
X73850Y-72650D01*
X73850Y-72650D02*
X73850Y-71850D01*
G54D13*
G36*
X68642Y-75030D02*
X68649Y-75027D01*
X68662Y-75018D01*
X68682Y-75005D01*
X68705Y-74990D01*
X68729Y-74974D01*
X68748Y-74961D01*
X68762Y-74952D01*
X68767Y-74949D01*
X68770Y-74950D01*
X68781Y-74956D01*
X68797Y-74964D01*
X68807Y-74969D01*
X68822Y-74975D01*
X68829Y-74977D01*
X68830Y-74975D01*
X68836Y-74963D01*
X68844Y-74944D01*
X68855Y-74918D01*
X68868Y-74888D01*
X68882Y-74856D01*
X68895Y-74823D01*
X68908Y-74792D01*
X68920Y-74763D01*
X68929Y-74740D01*
X68935Y-74724D01*
X68938Y-74717D01*
X68937Y-74716D01*
X68930Y-74709D01*
X68917Y-74699D01*
X68889Y-74676D01*
X68861Y-74642D01*
X68844Y-74603D01*
X68839Y-74559D01*
X68843Y-74519D01*
X68859Y-74481D01*
X68886Y-74446D01*
X68919Y-74420D01*
X68957Y-74404D01*
X69000Y-74399D01*
X69041Y-74403D01*
X69080Y-74419D01*
X69115Y-74445D01*
X69130Y-74462D01*
X69150Y-74498D01*
X69162Y-74535D01*
X69163Y-74544D01*
X69161Y-74586D01*
X69149Y-74626D01*
X69127Y-74661D01*
X69097Y-74690D01*
X69093Y-74693D01*
X69079Y-74704D01*
X69069Y-74711D01*
X69062Y-74717D01*
X69115Y-74844D01*
X69123Y-74864D01*
X69138Y-74899D01*
X69150Y-74929D01*
X69161Y-74953D01*
X69168Y-74969D01*
X69171Y-74975D01*
X69171Y-74975D01*
X69176Y-74976D01*
X69185Y-74973D01*
X69203Y-74964D01*
X69215Y-74958D01*
X69228Y-74952D01*
X69234Y-74949D01*
X69240Y-74952D01*
X69253Y-74960D01*
X69271Y-74973D01*
X69294Y-74988D01*
X69316Y-75003D01*
X69336Y-75016D01*
X69350Y-75026D01*
X69357Y-75029D01*
X69358Y-75029D01*
X69365Y-75026D01*
X69376Y-75016D01*
X69393Y-75000D01*
X69418Y-74976D01*
X69422Y-74972D01*
X69442Y-74952D01*
X69458Y-74934D01*
X69469Y-74922D01*
X69473Y-74917D01*
X69473Y-74917D01*
X69469Y-74910D01*
X69460Y-74895D01*
X69447Y-74875D01*
X69431Y-74851D01*
X69389Y-74790D01*
X69412Y-74733D01*
X69419Y-74715D01*
X69428Y-74693D01*
X69435Y-74678D01*
X69438Y-74671D01*
X69445Y-74669D01*
X69460Y-74665D01*
X69483Y-74661D01*
X69511Y-74656D01*
X69537Y-74651D01*
X69560Y-74646D01*
X69577Y-74643D01*
X69585Y-74642D01*
X69587Y-74640D01*
X69588Y-74637D01*
X69589Y-74629D01*
X69590Y-74614D01*
X69590Y-74592D01*
X69590Y-74559D01*
X69590Y-74556D01*
X69590Y-74525D01*
X69589Y-74500D01*
X69588Y-74485D01*
X69587Y-74478D01*
X69587Y-74478D01*
X69580Y-74476D01*
X69563Y-74473D01*
X69540Y-74468D01*
X69512Y-74463D01*
X69510Y-74463D01*
X69482Y-74457D01*
X69459Y-74452D01*
X69442Y-74449D01*
X69435Y-74446D01*
X69434Y-74444D01*
X69428Y-74433D01*
X69420Y-74416D01*
X69411Y-74395D01*
X69402Y-74373D01*
X69394Y-74353D01*
X69389Y-74339D01*
X69387Y-74332D01*
X69387Y-74332D01*
X69391Y-74325D01*
X69401Y-74311D01*
X69415Y-74291D01*
X69431Y-74267D01*
X69432Y-74265D01*
X69448Y-74241D01*
X69461Y-74221D01*
X69470Y-74207D01*
X69473Y-74201D01*
X69473Y-74200D01*
X69468Y-74193D01*
X69456Y-74180D01*
X69438Y-74162D01*
X69418Y-74141D01*
X69411Y-74135D01*
X69388Y-74112D01*
X69372Y-74098D01*
X69362Y-74090D01*
X69358Y-74088D01*
X69357Y-74088D01*
X69350Y-74092D01*
X69335Y-74102D01*
X69315Y-74116D01*
X69291Y-74132D01*
X69290Y-74133D01*
X69266Y-74149D01*
X69246Y-74163D01*
X69232Y-74172D01*
X69226Y-74175D01*
X69225Y-74175D01*
X69216Y-74173D01*
X69199Y-74167D01*
X69178Y-74159D01*
X69156Y-74150D01*
X69136Y-74142D01*
X69122Y-74135D01*
X69115Y-74131D01*
X69114Y-74131D01*
X69112Y-74122D01*
X69108Y-74104D01*
X69103Y-74080D01*
X69097Y-74051D01*
X69096Y-74047D01*
X69091Y-74018D01*
X69087Y-73995D01*
X69083Y-73979D01*
X69082Y-73972D01*
X69078Y-73972D01*
X69064Y-73971D01*
X69043Y-73970D01*
X69017Y-73970D01*
X68991Y-73970D01*
X68965Y-73970D01*
X68943Y-73971D01*
X68927Y-73972D01*
X68920Y-73974D01*
X68920Y-73974D01*
X68918Y-73983D01*
X68914Y-74000D01*
X68909Y-74025D01*
X68903Y-74054D01*
X68902Y-74059D01*
X68897Y-74087D01*
X68892Y-74110D01*
X68889Y-74126D01*
X68887Y-74132D01*
X68885Y-74133D01*
X68873Y-74139D01*
X68854Y-74146D01*
X68831Y-74156D01*
X68777Y-74178D01*
X68711Y-74132D01*
X68705Y-74128D01*
X68681Y-74112D01*
X68661Y-74099D01*
X68647Y-74090D01*
X68642Y-74087D01*
X68641Y-74087D01*
X68635Y-74093D01*
X68622Y-74105D01*
X68604Y-74123D01*
X68583Y-74143D01*
X68567Y-74159D01*
X68549Y-74177D01*
X68538Y-74190D01*
X68531Y-74198D01*
X68529Y-74203D01*
X68530Y-74206D01*
X68534Y-74213D01*
X68544Y-74227D01*
X68557Y-74248D01*
X68573Y-74271D01*
X68587Y-74291D01*
X68601Y-74313D01*
X68610Y-74329D01*
X68614Y-74336D01*
X68613Y-74340D01*
X68608Y-74353D01*
X68600Y-74372D01*
X68590Y-74396D01*
X68567Y-74448D01*
X68533Y-74455D01*
X68512Y-74459D01*
X68483Y-74464D01*
X68455Y-74470D01*
X68411Y-74478D01*
X68410Y-74637D01*
X68417Y-74640D01*
X68423Y-74642D01*
X68439Y-74646D01*
X68462Y-74650D01*
X68489Y-74655D01*
X68513Y-74660D01*
X68536Y-74664D01*
X68553Y-74667D01*
X68560Y-74669D01*
X68562Y-74671D01*
X68568Y-74683D01*
X68576Y-74701D01*
X68585Y-74722D01*
X68595Y-74745D01*
X68603Y-74765D01*
X68609Y-74781D01*
X68611Y-74789D01*
X68608Y-74795D01*
X68599Y-74809D01*
X68586Y-74829D01*
X68570Y-74852D01*
X68554Y-74875D01*
X68541Y-74895D01*
X68531Y-74909D01*
X68528Y-74916D01*
X68530Y-74920D01*
X68539Y-74931D01*
X68556Y-74949D01*
X68582Y-74975D01*
X68587Y-74979D01*
X68607Y-74999D01*
X68625Y-75015D01*
X68637Y-75026D01*
X68642Y-75030D01*
X68642Y-75030D01*
G37*
G54D11*
X69028Y-63121D02*
X69028Y-62821D01*
X69142Y-62821D01*
X69171Y-62835D01*
X69185Y-62850D01*
X69200Y-62878D01*
X69200Y-62921D01*
X69185Y-62950D01*
X69171Y-62964D01*
X69142Y-62978D01*
X69028Y-62978D01*
X69485Y-63121D02*
X69314Y-63121D01*
X69400Y-63121D02*
X69400Y-62821D01*
X69371Y-62864D01*
X69342Y-62892D01*
X69314Y-62907D01*
X67121Y-74471D02*
X66821Y-74471D01*
X66821Y-74357D01*
X66835Y-74328D01*
X66850Y-74314D01*
X66878Y-74300D01*
X66921Y-74300D01*
X66950Y-74314D01*
X66964Y-74328D01*
X66978Y-74357D01*
X66978Y-74471D01*
X66850Y-74185D02*
X66835Y-74171D01*
X66821Y-74142D01*
X66821Y-74071D01*
X66835Y-74042D01*
X66850Y-74028D01*
X66878Y-74014D01*
X66907Y-74014D01*
X66950Y-74028D01*
X67121Y-74200D01*
X67121Y-74014D01*
X75900Y-66871D02*
X75757Y-66871D01*
X75757Y-66571D01*
X76157Y-66871D02*
X75985Y-66871D01*
X76071Y-66871D02*
X76071Y-66571D01*
X76042Y-66614D01*
X76014Y-66642D01*
X75985Y-66657D01*
X77342Y-66871D02*
X77171Y-66871D01*
X77257Y-66871D02*
X77257Y-66571D01*
X77228Y-66614D01*
X77200Y-66642D01*
X77171Y-66657D01*
X77600Y-66671D02*
X77600Y-66871D01*
X77471Y-66671D02*
X77471Y-66828D01*
X77485Y-66857D01*
X77514Y-66871D01*
X77557Y-66871D01*
X77585Y-66857D01*
X77600Y-66842D01*
X77742Y-66871D02*
X77742Y-66571D01*
X77742Y-66714D02*
X77914Y-66714D01*
X77914Y-66871D02*
X77914Y-66571D01*
X72900Y-61621D02*
X72800Y-61478D01*
X72728Y-61621D02*
X72728Y-61321D01*
X72842Y-61321D01*
X72871Y-61335D01*
X72885Y-61350D01*
X72900Y-61378D01*
X72900Y-61421D01*
X72885Y-61450D01*
X72871Y-61464D01*
X72842Y-61478D01*
X72728Y-61478D01*
X73014Y-61350D02*
X73028Y-61335D01*
X73057Y-61321D01*
X73128Y-61321D01*
X73157Y-61335D01*
X73171Y-61350D01*
X73185Y-61378D01*
X73185Y-61407D01*
X73171Y-61450D01*
X73000Y-61621D01*
X73185Y-61621D01*
X74635Y-61621D02*
X74464Y-61621D01*
X74550Y-61621D02*
X74550Y-61321D01*
X74521Y-61364D01*
X74492Y-61392D01*
X74464Y-61407D01*
X72900Y-62621D02*
X72800Y-62478D01*
X72728Y-62621D02*
X72728Y-62321D01*
X72842Y-62321D01*
X72871Y-62335D01*
X72885Y-62350D01*
X72900Y-62378D01*
X72900Y-62421D01*
X72885Y-62450D01*
X72871Y-62464D01*
X72842Y-62478D01*
X72728Y-62478D01*
X73000Y-62321D02*
X73185Y-62321D01*
X73085Y-62435D01*
X73128Y-62435D01*
X73157Y-62450D01*
X73171Y-62464D01*
X73185Y-62492D01*
X73185Y-62564D01*
X73171Y-62592D01*
X73157Y-62607D01*
X73128Y-62621D01*
X73042Y-62621D01*
X73014Y-62607D01*
X73000Y-62592D01*
X74635Y-62621D02*
X74464Y-62621D01*
X74550Y-62621D02*
X74550Y-62321D01*
X74521Y-62364D01*
X74492Y-62392D01*
X74464Y-62407D01*
X75121Y-77849D02*
X75121Y-77992D01*
X74821Y-77992D01*
X75121Y-77735D02*
X75121Y-77678D01*
X75107Y-77649D01*
X75092Y-77635D01*
X75050Y-77607D01*
X74992Y-77592D01*
X74878Y-77592D01*
X74850Y-77607D01*
X74835Y-77621D01*
X74821Y-77649D01*
X74821Y-77707D01*
X74835Y-77735D01*
X74850Y-77749D01*
X74878Y-77764D01*
X74950Y-77764D01*
X74978Y-77749D01*
X74992Y-77735D01*
X75007Y-77707D01*
X75007Y-77649D01*
X74992Y-77621D01*
X74978Y-77607D01*
X74950Y-77592D01*
X75121Y-76407D02*
X75121Y-76578D01*
X75121Y-76492D02*
X74821Y-76492D01*
X74864Y-76521D01*
X74892Y-76550D01*
X74907Y-76578D01*
X74921Y-76150D02*
X75121Y-76150D01*
X74921Y-76278D02*
X75078Y-76278D01*
X75107Y-76264D01*
X75121Y-76235D01*
X75121Y-76192D01*
X75107Y-76164D01*
X75092Y-76150D01*
X75121Y-76007D02*
X74821Y-76007D01*
X74964Y-76007D02*
X74964Y-75835D01*
X75121Y-75835D02*
X74821Y-75835D01*
X72900Y-63621D02*
X72800Y-63478D01*
X72728Y-63621D02*
X72728Y-63321D01*
X72842Y-63321D01*
X72871Y-63335D01*
X72885Y-63350D01*
X72900Y-63378D01*
X72900Y-63421D01*
X72885Y-63450D01*
X72871Y-63464D01*
X72842Y-63478D01*
X72728Y-63478D01*
X73157Y-63421D02*
X73157Y-63621D01*
X73085Y-63307D02*
X73014Y-63521D01*
X73200Y-63521D01*
X74635Y-63621D02*
X74464Y-63621D01*
X74550Y-63621D02*
X74550Y-63321D01*
X74521Y-63364D01*
X74492Y-63392D01*
X74464Y-63407D01*
X72900Y-60621D02*
X72800Y-60478D01*
X72728Y-60621D02*
X72728Y-60321D01*
X72842Y-60321D01*
X72871Y-60335D01*
X72885Y-60350D01*
X72900Y-60378D01*
X72900Y-60421D01*
X72885Y-60450D01*
X72871Y-60464D01*
X72842Y-60478D01*
X72728Y-60478D01*
X73185Y-60621D02*
X73014Y-60621D01*
X73100Y-60621D02*
X73100Y-60321D01*
X73071Y-60364D01*
X73042Y-60392D01*
X73014Y-60407D01*
X74635Y-60621D02*
X74464Y-60621D01*
X74550Y-60621D02*
X74550Y-60321D01*
X74521Y-60364D01*
X74492Y-60392D01*
X74464Y-60407D01*
X75400Y-69121D02*
X75257Y-69121D01*
X75257Y-68821D01*
X75471Y-68821D02*
X75657Y-68821D01*
X75557Y-68935D01*
X75600Y-68935D01*
X75628Y-68950D01*
X75642Y-68964D01*
X75657Y-68992D01*
X75657Y-69064D01*
X75642Y-69092D01*
X75628Y-69107D01*
X75600Y-69121D01*
X75514Y-69121D01*
X75485Y-69107D01*
X75471Y-69092D01*
X76557Y-69121D02*
X76385Y-69121D01*
X76471Y-69121D02*
X76471Y-68821D01*
X76442Y-68864D01*
X76414Y-68892D01*
X76385Y-68907D01*
X76742Y-68821D02*
X76771Y-68821D01*
X76800Y-68835D01*
X76814Y-68850D01*
X76828Y-68878D01*
X76842Y-68935D01*
X76842Y-69007D01*
X76828Y-69064D01*
X76814Y-69092D01*
X76800Y-69107D01*
X76771Y-69121D01*
X76742Y-69121D01*
X76714Y-69107D01*
X76700Y-69092D01*
X76685Y-69064D01*
X76671Y-69007D01*
X76671Y-68935D01*
X76685Y-68878D01*
X76700Y-68850D01*
X76714Y-68835D01*
X76742Y-68821D01*
X77028Y-68821D02*
X77057Y-68821D01*
X77085Y-68835D01*
X77100Y-68850D01*
X77114Y-68878D01*
X77128Y-68935D01*
X77128Y-69007D01*
X77114Y-69064D01*
X77100Y-69092D01*
X77085Y-69107D01*
X77057Y-69121D01*
X77028Y-69121D01*
X77000Y-69107D01*
X76985Y-69092D01*
X76971Y-69064D01*
X76957Y-69007D01*
X76957Y-68935D01*
X76971Y-68878D01*
X76985Y-68850D01*
X77000Y-68835D01*
X77028Y-68821D01*
X77385Y-68921D02*
X77385Y-69121D01*
X77257Y-68921D02*
X77257Y-69078D01*
X77271Y-69107D01*
X77300Y-69121D01*
X77342Y-69121D01*
X77371Y-69107D01*
X77385Y-69092D01*
X77528Y-69121D02*
X77528Y-68821D01*
X77528Y-68964D02*
X77700Y-68964D01*
X77700Y-69121D02*
X77700Y-68821D01*
X75400Y-70121D02*
X75257Y-70121D01*
X75257Y-69821D01*
X75628Y-69921D02*
X75628Y-70121D01*
X75557Y-69807D02*
X75485Y-70021D01*
X75671Y-70021D01*
X76557Y-70121D02*
X76385Y-70121D01*
X76471Y-70121D02*
X76471Y-69821D01*
X76442Y-69864D01*
X76414Y-69892D01*
X76385Y-69907D01*
X76742Y-69821D02*
X76771Y-69821D01*
X76800Y-69835D01*
X76814Y-69850D01*
X76828Y-69878D01*
X76842Y-69935D01*
X76842Y-70007D01*
X76828Y-70064D01*
X76814Y-70092D01*
X76800Y-70107D01*
X76771Y-70121D01*
X76742Y-70121D01*
X76714Y-70107D01*
X76700Y-70092D01*
X76685Y-70064D01*
X76671Y-70007D01*
X76671Y-69935D01*
X76685Y-69878D01*
X76700Y-69850D01*
X76714Y-69835D01*
X76742Y-69821D01*
X77028Y-69821D02*
X77057Y-69821D01*
X77085Y-69835D01*
X77100Y-69850D01*
X77114Y-69878D01*
X77128Y-69935D01*
X77128Y-70007D01*
X77114Y-70064D01*
X77100Y-70092D01*
X77085Y-70107D01*
X77057Y-70121D01*
X77028Y-70121D01*
X77000Y-70107D01*
X76985Y-70092D01*
X76971Y-70064D01*
X76957Y-70007D01*
X76957Y-69935D01*
X76971Y-69878D01*
X76985Y-69850D01*
X77000Y-69835D01*
X77028Y-69821D01*
X77385Y-69921D02*
X77385Y-70121D01*
X77257Y-69921D02*
X77257Y-70078D01*
X77271Y-70107D01*
X77300Y-70121D01*
X77342Y-70121D01*
X77371Y-70107D01*
X77385Y-70092D01*
X77528Y-70121D02*
X77528Y-69821D01*
X77528Y-69964D02*
X77700Y-69964D01*
X77700Y-70121D02*
X77700Y-69821D01*
X71107Y-73371D02*
X71007Y-73228D01*
X70935Y-73371D02*
X70935Y-73071D01*
X71050Y-73071D01*
X71078Y-73085D01*
X71092Y-73100D01*
X71107Y-73128D01*
X71107Y-73171D01*
X71092Y-73200D01*
X71078Y-73214D01*
X71050Y-73228D01*
X70935Y-73228D01*
X71392Y-73371D02*
X71221Y-73371D01*
X71307Y-73371D02*
X71307Y-73071D01*
X71278Y-73114D01*
X71250Y-73142D01*
X71221Y-73157D01*
X71578Y-73071D02*
X71607Y-73071D01*
X71635Y-73085D01*
X71650Y-73100D01*
X71664Y-73128D01*
X71678Y-73185D01*
X71678Y-73257D01*
X71664Y-73314D01*
X71650Y-73342D01*
X71635Y-73357D01*
X71607Y-73371D01*
X71578Y-73371D01*
X71550Y-73357D01*
X71535Y-73342D01*
X71521Y-73314D01*
X71507Y-73257D01*
X71507Y-73185D01*
X71521Y-73128D01*
X71535Y-73100D01*
X71550Y-73085D01*
X71578Y-73071D01*
X69664Y-73371D02*
X69492Y-73371D01*
X69578Y-73371D02*
X69578Y-73071D01*
X69550Y-73114D01*
X69521Y-73142D01*
X69492Y-73157D01*
X69792Y-73371D02*
X69792Y-73071D01*
X69821Y-73257D02*
X69907Y-73371D01*
X69907Y-73171D02*
X69792Y-73285D01*
X73250Y-74371D02*
X73150Y-74228D01*
X73078Y-74371D02*
X73078Y-74071D01*
X73192Y-74071D01*
X73221Y-74085D01*
X73235Y-74100D01*
X73250Y-74128D01*
X73250Y-74171D01*
X73235Y-74200D01*
X73221Y-74214D01*
X73192Y-74228D01*
X73078Y-74228D01*
X73392Y-74371D02*
X73450Y-74371D01*
X73478Y-74357D01*
X73492Y-74342D01*
X73521Y-74300D01*
X73535Y-74242D01*
X73535Y-74128D01*
X73521Y-74100D01*
X73507Y-74085D01*
X73478Y-74071D01*
X73421Y-74071D01*
X73392Y-74085D01*
X73378Y-74100D01*
X73364Y-74128D01*
X73364Y-74200D01*
X73378Y-74228D01*
X73392Y-74242D01*
X73421Y-74257D01*
X73478Y-74257D01*
X73507Y-74242D01*
X73521Y-74228D01*
X73535Y-74200D01*
X71521Y-74371D02*
X71350Y-74371D01*
X71435Y-74371D02*
X71435Y-74071D01*
X71407Y-74114D01*
X71378Y-74142D01*
X71350Y-74157D01*
X71707Y-74071D02*
X71735Y-74071D01*
X71764Y-74085D01*
X71778Y-74100D01*
X71792Y-74128D01*
X71807Y-74185D01*
X71807Y-74257D01*
X71792Y-74314D01*
X71778Y-74342D01*
X71764Y-74357D01*
X71735Y-74371D01*
X71707Y-74371D01*
X71678Y-74357D01*
X71664Y-74342D01*
X71650Y-74314D01*
X71635Y-74257D01*
X71635Y-74185D01*
X71650Y-74128D01*
X71664Y-74100D01*
X71678Y-74085D01*
X71707Y-74071D01*
X71935Y-74371D02*
X71935Y-74071D01*
X71964Y-74257D02*
X72050Y-74371D01*
X72050Y-74171D02*
X71935Y-74285D01*
X81750Y-68121D02*
X81607Y-68121D01*
X81607Y-67821D01*
X81992Y-67821D02*
X81850Y-67821D01*
X81835Y-67964D01*
X81850Y-67950D01*
X81878Y-67935D01*
X81950Y-67935D01*
X81978Y-67950D01*
X81992Y-67964D01*
X82007Y-67992D01*
X82007Y-68064D01*
X81992Y-68092D01*
X81978Y-68107D01*
X81950Y-68121D01*
X81878Y-68121D01*
X81850Y-68107D01*
X81835Y-68092D01*
X79707Y-68121D02*
X79535Y-68121D01*
X79621Y-68121D02*
X79621Y-67821D01*
X79592Y-67864D01*
X79564Y-67892D01*
X79535Y-67907D01*
X79892Y-67821D02*
X79921Y-67821D01*
X79950Y-67835D01*
X79964Y-67850D01*
X79978Y-67878D01*
X79992Y-67935D01*
X79992Y-68007D01*
X79978Y-68064D01*
X79964Y-68092D01*
X79950Y-68107D01*
X79921Y-68121D01*
X79892Y-68121D01*
X79864Y-68107D01*
X79850Y-68092D01*
X79835Y-68064D01*
X79821Y-68007D01*
X79821Y-67935D01*
X79835Y-67878D01*
X79850Y-67850D01*
X79864Y-67835D01*
X79892Y-67821D01*
X80178Y-67821D02*
X80207Y-67821D01*
X80235Y-67835D01*
X80250Y-67850D01*
X80264Y-67878D01*
X80278Y-67935D01*
X80278Y-68007D01*
X80264Y-68064D01*
X80250Y-68092D01*
X80235Y-68107D01*
X80207Y-68121D01*
X80178Y-68121D01*
X80150Y-68107D01*
X80135Y-68092D01*
X80121Y-68064D01*
X80107Y-68007D01*
X80107Y-67935D01*
X80121Y-67878D01*
X80135Y-67850D01*
X80150Y-67835D01*
X80178Y-67821D01*
X80535Y-67921D02*
X80535Y-68121D01*
X80407Y-67921D02*
X80407Y-68078D01*
X80421Y-68107D01*
X80450Y-68121D01*
X80492Y-68121D01*
X80521Y-68107D01*
X80535Y-68092D01*
X80678Y-68121D02*
X80678Y-67821D01*
X80678Y-67964D02*
X80850Y-67964D01*
X80850Y-68121D02*
X80850Y-67821D01*
X77000Y-68121D02*
X76857Y-68121D01*
X76857Y-67821D01*
X77085Y-67850D02*
X77100Y-67835D01*
X77128Y-67821D01*
X77200Y-67821D01*
X77228Y-67835D01*
X77242Y-67850D01*
X77257Y-67878D01*
X77257Y-67907D01*
X77242Y-67950D01*
X77071Y-68121D01*
X77257Y-68121D01*
X74957Y-68121D02*
X74785Y-68121D01*
X74871Y-68121D02*
X74871Y-67821D01*
X74842Y-67864D01*
X74814Y-67892D01*
X74785Y-67907D01*
X75142Y-67821D02*
X75171Y-67821D01*
X75200Y-67835D01*
X75214Y-67850D01*
X75228Y-67878D01*
X75242Y-67935D01*
X75242Y-68007D01*
X75228Y-68064D01*
X75214Y-68092D01*
X75200Y-68107D01*
X75171Y-68121D01*
X75142Y-68121D01*
X75114Y-68107D01*
X75100Y-68092D01*
X75085Y-68064D01*
X75071Y-68007D01*
X75071Y-67935D01*
X75085Y-67878D01*
X75100Y-67850D01*
X75114Y-67835D01*
X75142Y-67821D01*
X75428Y-67821D02*
X75457Y-67821D01*
X75485Y-67835D01*
X75500Y-67850D01*
X75514Y-67878D01*
X75528Y-67935D01*
X75528Y-68007D01*
X75514Y-68064D01*
X75500Y-68092D01*
X75485Y-68107D01*
X75457Y-68121D01*
X75428Y-68121D01*
X75400Y-68107D01*
X75385Y-68092D01*
X75371Y-68064D01*
X75357Y-68007D01*
X75357Y-67935D01*
X75371Y-67878D01*
X75385Y-67850D01*
X75400Y-67835D01*
X75428Y-67821D01*
X75785Y-67921D02*
X75785Y-68121D01*
X75657Y-67921D02*
X75657Y-68078D01*
X75671Y-68107D01*
X75700Y-68121D01*
X75742Y-68121D01*
X75771Y-68107D01*
X75785Y-68092D01*
X75928Y-68121D02*
X75928Y-67821D01*
X75928Y-67964D02*
X76100Y-67964D01*
X76100Y-68121D02*
X76100Y-67821D01*
X81750Y-69121D02*
X81607Y-69121D01*
X81607Y-68821D01*
X81978Y-68821D02*
X81921Y-68821D01*
X81892Y-68835D01*
X81878Y-68850D01*
X81850Y-68892D01*
X81835Y-68950D01*
X81835Y-69064D01*
X81850Y-69092D01*
X81864Y-69107D01*
X81892Y-69121D01*
X81950Y-69121D01*
X81978Y-69107D01*
X81992Y-69092D01*
X82007Y-69064D01*
X82007Y-68992D01*
X81992Y-68964D01*
X81978Y-68950D01*
X81950Y-68935D01*
X81892Y-68935D01*
X81864Y-68950D01*
X81850Y-68964D01*
X81835Y-68992D01*
X79707Y-69121D02*
X79535Y-69121D01*
X79621Y-69121D02*
X79621Y-68821D01*
X79592Y-68864D01*
X79564Y-68892D01*
X79535Y-68907D01*
X79892Y-68821D02*
X79921Y-68821D01*
X79950Y-68835D01*
X79964Y-68850D01*
X79978Y-68878D01*
X79992Y-68935D01*
X79992Y-69007D01*
X79978Y-69064D01*
X79964Y-69092D01*
X79950Y-69107D01*
X79921Y-69121D01*
X79892Y-69121D01*
X79864Y-69107D01*
X79850Y-69092D01*
X79835Y-69064D01*
X79821Y-69007D01*
X79821Y-68935D01*
X79835Y-68878D01*
X79850Y-68850D01*
X79864Y-68835D01*
X79892Y-68821D01*
X80178Y-68821D02*
X80207Y-68821D01*
X80235Y-68835D01*
X80250Y-68850D01*
X80264Y-68878D01*
X80278Y-68935D01*
X80278Y-69007D01*
X80264Y-69064D01*
X80250Y-69092D01*
X80235Y-69107D01*
X80207Y-69121D01*
X80178Y-69121D01*
X80150Y-69107D01*
X80135Y-69092D01*
X80121Y-69064D01*
X80107Y-69007D01*
X80107Y-68935D01*
X80121Y-68878D01*
X80135Y-68850D01*
X80150Y-68835D01*
X80178Y-68821D01*
X80535Y-68921D02*
X80535Y-69121D01*
X80407Y-68921D02*
X80407Y-69078D01*
X80421Y-69107D01*
X80450Y-69121D01*
X80492Y-69121D01*
X80521Y-69107D01*
X80535Y-69092D01*
X80678Y-69121D02*
X80678Y-68821D01*
X80678Y-68964D02*
X80850Y-68964D01*
X80850Y-69121D02*
X80850Y-68821D01*
X64621Y-68250D02*
X64478Y-68350D01*
X64621Y-68421D02*
X64321Y-68421D01*
X64321Y-68307D01*
X64335Y-68278D01*
X64350Y-68264D01*
X64378Y-68250D01*
X64421Y-68250D01*
X64450Y-68264D01*
X64464Y-68278D01*
X64478Y-68307D01*
X64478Y-68421D01*
X64321Y-67978D02*
X64321Y-68121D01*
X64464Y-68135D01*
X64450Y-68121D01*
X64435Y-68092D01*
X64435Y-68021D01*
X64450Y-67992D01*
X64464Y-67978D01*
X64492Y-67964D01*
X64564Y-67964D01*
X64592Y-67978D01*
X64607Y-67992D01*
X64621Y-68021D01*
X64621Y-68092D01*
X64607Y-68121D01*
X64592Y-68135D01*
X64621Y-69714D02*
X64621Y-69885D01*
X64621Y-69800D02*
X64321Y-69800D01*
X64364Y-69828D01*
X64392Y-69857D01*
X64407Y-69885D01*
X67621Y-69000D02*
X67478Y-69100D01*
X67621Y-69171D02*
X67321Y-69171D01*
X67321Y-69057D01*
X67335Y-69028D01*
X67350Y-69014D01*
X67378Y-69000D01*
X67421Y-69000D01*
X67450Y-69014D01*
X67464Y-69028D01*
X67478Y-69057D01*
X67478Y-69171D01*
X67450Y-68828D02*
X67435Y-68857D01*
X67421Y-68871D01*
X67392Y-68885D01*
X67378Y-68885D01*
X67350Y-68871D01*
X67335Y-68857D01*
X67321Y-68828D01*
X67321Y-68771D01*
X67335Y-68742D01*
X67350Y-68728D01*
X67378Y-68714D01*
X67392Y-68714D01*
X67421Y-68728D01*
X67435Y-68742D01*
X67450Y-68771D01*
X67450Y-68828D01*
X67464Y-68857D01*
X67478Y-68871D01*
X67507Y-68885D01*
X67564Y-68885D01*
X67592Y-68871D01*
X67607Y-68857D01*
X67621Y-68828D01*
X67621Y-68771D01*
X67607Y-68742D01*
X67592Y-68728D01*
X67564Y-68714D01*
X67507Y-68714D01*
X67478Y-68728D01*
X67464Y-68742D01*
X67450Y-68771D01*
X67621Y-70464D02*
X67621Y-70635D01*
X67621Y-70550D02*
X67321Y-70550D01*
X67364Y-70578D01*
X67392Y-70607D01*
X67407Y-70635D01*
X66621Y-68250D02*
X66478Y-68350D01*
X66621Y-68421D02*
X66321Y-68421D01*
X66321Y-68307D01*
X66335Y-68278D01*
X66350Y-68264D01*
X66378Y-68250D01*
X66421Y-68250D01*
X66450Y-68264D01*
X66464Y-68278D01*
X66478Y-68307D01*
X66478Y-68421D01*
X66321Y-68150D02*
X66321Y-67950D01*
X66621Y-68078D01*
X66621Y-69714D02*
X66621Y-69885D01*
X66621Y-69800D02*
X66321Y-69800D01*
X66364Y-69828D01*
X66392Y-69857D01*
X66407Y-69885D01*
X65621Y-68250D02*
X65478Y-68350D01*
X65621Y-68421D02*
X65321Y-68421D01*
X65321Y-68307D01*
X65335Y-68278D01*
X65350Y-68264D01*
X65378Y-68250D01*
X65421Y-68250D01*
X65450Y-68264D01*
X65464Y-68278D01*
X65478Y-68307D01*
X65478Y-68421D01*
X65321Y-67992D02*
X65321Y-68050D01*
X65335Y-68078D01*
X65350Y-68092D01*
X65392Y-68121D01*
X65450Y-68135D01*
X65564Y-68135D01*
X65592Y-68121D01*
X65607Y-68107D01*
X65621Y-68078D01*
X65621Y-68021D01*
X65607Y-67992D01*
X65592Y-67978D01*
X65564Y-67964D01*
X65492Y-67964D01*
X65464Y-67978D01*
X65450Y-67992D01*
X65435Y-68021D01*
X65435Y-68078D01*
X65450Y-68107D01*
X65464Y-68121D01*
X65492Y-68135D01*
X65621Y-69714D02*
X65621Y-69885D01*
X65621Y-69800D02*
X65321Y-69800D01*
X65364Y-69828D01*
X65392Y-69857D01*
X65407Y-69885D01*
X81750Y-70121D02*
X81607Y-70121D01*
X81607Y-69821D01*
X81821Y-69821D02*
X82021Y-69821D01*
X81892Y-70121D01*
X79707Y-70121D02*
X79535Y-70121D01*
X79621Y-70121D02*
X79621Y-69821D01*
X79592Y-69864D01*
X79564Y-69892D01*
X79535Y-69907D01*
X79892Y-69821D02*
X79921Y-69821D01*
X79950Y-69835D01*
X79964Y-69850D01*
X79978Y-69878D01*
X79992Y-69935D01*
X79992Y-70007D01*
X79978Y-70064D01*
X79964Y-70092D01*
X79950Y-70107D01*
X79921Y-70121D01*
X79892Y-70121D01*
X79864Y-70107D01*
X79850Y-70092D01*
X79835Y-70064D01*
X79821Y-70007D01*
X79821Y-69935D01*
X79835Y-69878D01*
X79850Y-69850D01*
X79864Y-69835D01*
X79892Y-69821D01*
X80178Y-69821D02*
X80207Y-69821D01*
X80235Y-69835D01*
X80250Y-69850D01*
X80264Y-69878D01*
X80278Y-69935D01*
X80278Y-70007D01*
X80264Y-70064D01*
X80250Y-70092D01*
X80235Y-70107D01*
X80207Y-70121D01*
X80178Y-70121D01*
X80150Y-70107D01*
X80135Y-70092D01*
X80121Y-70064D01*
X80107Y-70007D01*
X80107Y-69935D01*
X80121Y-69878D01*
X80135Y-69850D01*
X80150Y-69835D01*
X80178Y-69821D01*
X80535Y-69921D02*
X80535Y-70121D01*
X80407Y-69921D02*
X80407Y-70078D01*
X80421Y-70107D01*
X80450Y-70121D01*
X80492Y-70121D01*
X80521Y-70107D01*
X80535Y-70092D01*
X80678Y-70121D02*
X80678Y-69821D01*
X80678Y-69964D02*
X80850Y-69964D01*
X80850Y-70121D02*
X80850Y-69821D01*
X81750Y-71121D02*
X81607Y-71121D01*
X81607Y-70821D01*
X81892Y-70950D02*
X81864Y-70935D01*
X81850Y-70921D01*
X81835Y-70892D01*
X81835Y-70878D01*
X81850Y-70850D01*
X81864Y-70835D01*
X81892Y-70821D01*
X81950Y-70821D01*
X81978Y-70835D01*
X81992Y-70850D01*
X82007Y-70878D01*
X82007Y-70892D01*
X81992Y-70921D01*
X81978Y-70935D01*
X81950Y-70950D01*
X81892Y-70950D01*
X81864Y-70964D01*
X81850Y-70978D01*
X81835Y-71007D01*
X81835Y-71064D01*
X81850Y-71092D01*
X81864Y-71107D01*
X81892Y-71121D01*
X81950Y-71121D01*
X81978Y-71107D01*
X81992Y-71092D01*
X82007Y-71064D01*
X82007Y-71007D01*
X81992Y-70978D01*
X81978Y-70964D01*
X81950Y-70950D01*
X79707Y-71121D02*
X79535Y-71121D01*
X79621Y-71121D02*
X79621Y-70821D01*
X79592Y-70864D01*
X79564Y-70892D01*
X79535Y-70907D01*
X79892Y-70821D02*
X79921Y-70821D01*
X79950Y-70835D01*
X79964Y-70850D01*
X79978Y-70878D01*
X79992Y-70935D01*
X79992Y-71007D01*
X79978Y-71064D01*
X79964Y-71092D01*
X79950Y-71107D01*
X79921Y-71121D01*
X79892Y-71121D01*
X79864Y-71107D01*
X79850Y-71092D01*
X79835Y-71064D01*
X79821Y-71007D01*
X79821Y-70935D01*
X79835Y-70878D01*
X79850Y-70850D01*
X79864Y-70835D01*
X79892Y-70821D01*
X80178Y-70821D02*
X80207Y-70821D01*
X80235Y-70835D01*
X80250Y-70850D01*
X80264Y-70878D01*
X80278Y-70935D01*
X80278Y-71007D01*
X80264Y-71064D01*
X80250Y-71092D01*
X80235Y-71107D01*
X80207Y-71121D01*
X80178Y-71121D01*
X80150Y-71107D01*
X80135Y-71092D01*
X80121Y-71064D01*
X80107Y-71007D01*
X80107Y-70935D01*
X80121Y-70878D01*
X80135Y-70850D01*
X80150Y-70835D01*
X80178Y-70821D01*
X80535Y-70921D02*
X80535Y-71121D01*
X80407Y-70921D02*
X80407Y-71078D01*
X80421Y-71107D01*
X80450Y-71121D01*
X80492Y-71121D01*
X80521Y-71107D01*
X80535Y-71092D01*
X80678Y-71121D02*
X80678Y-70821D01*
X80678Y-70964D02*
X80850Y-70964D01*
X80850Y-71121D02*
X80850Y-70821D01*
X76214Y-77249D02*
X76214Y-77349D01*
X76371Y-77349D02*
X76071Y-77349D01*
X76071Y-77207D01*
X76214Y-76992D02*
X76228Y-76949D01*
X76242Y-76935D01*
X76271Y-76921D01*
X76314Y-76921D01*
X76342Y-76935D01*
X76357Y-76949D01*
X76371Y-76978D01*
X76371Y-77092D01*
X76071Y-77092D01*
X76071Y-76992D01*
X76085Y-76964D01*
X76100Y-76949D01*
X76128Y-76935D01*
X76157Y-76935D01*
X76185Y-76949D01*
X76200Y-76964D01*
X76214Y-76992D01*
X76214Y-77092D01*
X76100Y-76807D02*
X76085Y-76792D01*
X76071Y-76764D01*
X76071Y-76692D01*
X76085Y-76664D01*
X76100Y-76649D01*
X76128Y-76635D01*
X76157Y-76635D01*
X76200Y-76649D01*
X76371Y-76821D01*
X76371Y-76635D01*
X76500Y-65214D02*
X76400Y-65214D01*
X76400Y-65371D02*
X76400Y-65071D01*
X76542Y-65071D01*
X76757Y-65214D02*
X76800Y-65228D01*
X76814Y-65242D01*
X76828Y-65271D01*
X76828Y-65314D01*
X76814Y-65342D01*
X76800Y-65357D01*
X76771Y-65371D01*
X76657Y-65371D01*
X76657Y-65071D01*
X76757Y-65071D01*
X76785Y-65085D01*
X76800Y-65100D01*
X76814Y-65128D01*
X76814Y-65157D01*
X76800Y-65185D01*
X76785Y-65200D01*
X76757Y-65214D01*
X76657Y-65214D01*
X77114Y-65371D02*
X76942Y-65371D01*
X77028Y-65371D02*
X77028Y-65071D01*
X77000Y-65114D01*
X76971Y-65142D01*
X76942Y-65157D01*
X70771Y-69071D02*
X70771Y-69314D01*
X70785Y-69342D01*
X70800Y-69357D01*
X70828Y-69371D01*
X70885Y-69371D01*
X70914Y-69357D01*
X70928Y-69342D01*
X70942Y-69314D01*
X70942Y-69071D01*
X71242Y-69371D02*
X71071Y-69371D01*
X71157Y-69371D02*
X71157Y-69071D01*
X71128Y-69114D01*
X71100Y-69142D01*
X71071Y-69157D01*
X71121Y-71964D02*
X70821Y-71964D01*
X71035Y-71864D01*
X70821Y-71764D01*
X71121Y-71764D01*
X71092Y-71449D02*
X71107Y-71464D01*
X71121Y-71507D01*
X71121Y-71535D01*
X71107Y-71578D01*
X71078Y-71607D01*
X71050Y-71621D01*
X70992Y-71635D01*
X70950Y-71635D01*
X70892Y-71621D01*
X70864Y-71607D01*
X70835Y-71578D01*
X70821Y-71535D01*
X70821Y-71507D01*
X70835Y-71464D01*
X70850Y-71449D01*
X70821Y-71349D02*
X70821Y-71164D01*
X70935Y-71264D01*
X70935Y-71221D01*
X70950Y-71192D01*
X70964Y-71178D01*
X70992Y-71164D01*
X71064Y-71164D01*
X71092Y-71178D01*
X71107Y-71192D01*
X71121Y-71221D01*
X71121Y-71307D01*
X71107Y-71335D01*
X71092Y-71349D01*
X70921Y-70907D02*
X71121Y-70907D01*
X70807Y-70978D02*
X71021Y-71049D01*
X71021Y-70864D01*
X70821Y-70692D02*
X70821Y-70664D01*
X70835Y-70635D01*
X70850Y-70621D01*
X70878Y-70607D01*
X70935Y-70592D01*
X71007Y-70592D01*
X71064Y-70607D01*
X71092Y-70621D01*
X71107Y-70635D01*
X71121Y-70664D01*
X71121Y-70692D01*
X71107Y-70721D01*
X71092Y-70735D01*
X71064Y-70749D01*
X71007Y-70764D01*
X70935Y-70764D01*
X70878Y-70749D01*
X70850Y-70735D01*
X70835Y-70721D01*
X70821Y-70692D01*
X70821Y-70335D02*
X70821Y-70392D01*
X70835Y-70421D01*
X70850Y-70435D01*
X70892Y-70464D01*
X70950Y-70478D01*
X71064Y-70478D01*
X71092Y-70464D01*
X71107Y-70450D01*
X71121Y-70421D01*
X71121Y-70364D01*
X71107Y-70335D01*
X71092Y-70321D01*
X71064Y-70307D01*
X70992Y-70307D01*
X70964Y-70321D01*
X70950Y-70335D01*
X70935Y-70364D01*
X70935Y-70421D01*
X70950Y-70450D01*
X70964Y-70464D01*
X70992Y-70478D01*
X70821Y-70207D02*
X70821Y-70021D01*
X70935Y-70121D01*
X70935Y-70078D01*
X70950Y-70050D01*
X70964Y-70035D01*
X70992Y-70021D01*
X71064Y-70021D01*
X71092Y-70035D01*
X71107Y-70050D01*
X71121Y-70078D01*
X71121Y-70164D01*
X71107Y-70192D01*
X71092Y-70207D01*
G54D14*
X83851Y-73134D02*
X83601Y-73134D01*
X83601Y-73075D01*
X83613Y-73039D01*
X83636Y-73015D01*
X83660Y-73003D01*
X83708Y-72991D01*
X83744Y-72991D01*
X83791Y-73003D01*
X83815Y-73015D01*
X83839Y-73039D01*
X83851Y-73075D01*
X83851Y-73134D01*
X83851Y-72753D02*
X83851Y-72896D01*
X83851Y-72825D02*
X83601Y-72825D01*
X83636Y-72848D01*
X83660Y-72872D01*
X83672Y-72896D01*
X83101Y-74535D02*
X83101Y-74678D01*
X83101Y-74607D02*
X82851Y-74607D01*
X82886Y-74630D01*
X82910Y-74654D01*
X82922Y-74678D01*
X83101Y-74428D02*
X82851Y-74428D01*
X83101Y-74285D01*
X82851Y-74285D01*
X82851Y-74047D02*
X82851Y-74166D01*
X82970Y-74178D01*
X82958Y-74166D01*
X82946Y-74142D01*
X82946Y-74083D01*
X82958Y-74059D01*
X82970Y-74047D01*
X82994Y-74035D01*
X83053Y-74035D01*
X83077Y-74047D01*
X83089Y-74059D01*
X83101Y-74083D01*
X83101Y-74142D01*
X83089Y-74166D01*
X83077Y-74178D01*
X82958Y-73892D02*
X82946Y-73916D01*
X82934Y-73928D01*
X82910Y-73940D01*
X82898Y-73940D01*
X82875Y-73928D01*
X82863Y-73916D01*
X82851Y-73892D01*
X82851Y-73845D01*
X82863Y-73821D01*
X82875Y-73809D01*
X82898Y-73797D01*
X82910Y-73797D01*
X82934Y-73809D01*
X82946Y-73821D01*
X82958Y-73845D01*
X82958Y-73892D01*
X82970Y-73916D01*
X82982Y-73928D01*
X83005Y-73940D01*
X83053Y-73940D01*
X83077Y-73928D01*
X83089Y-73916D01*
X83101Y-73892D01*
X83101Y-73845D01*
X83089Y-73821D01*
X83077Y-73809D01*
X83053Y-73797D01*
X83005Y-73797D01*
X82982Y-73809D01*
X82970Y-73821D01*
X82958Y-73845D01*
X83101Y-73559D02*
X83101Y-73702D01*
X83101Y-73630D02*
X82851Y-73630D01*
X82886Y-73654D01*
X82910Y-73678D01*
X82922Y-73702D01*
X83101Y-73440D02*
X83101Y-73392D01*
X83089Y-73369D01*
X83077Y-73357D01*
X83041Y-73333D01*
X82994Y-73321D01*
X82898Y-73321D01*
X82875Y-73333D01*
X82863Y-73345D01*
X82851Y-73369D01*
X82851Y-73416D01*
X82863Y-73440D01*
X82875Y-73452D01*
X82898Y-73464D01*
X82958Y-73464D01*
X82982Y-73452D01*
X82994Y-73440D01*
X83005Y-73416D01*
X83005Y-73369D01*
X82994Y-73345D01*
X82982Y-73333D01*
X82958Y-73321D01*
X72177Y-65791D02*
X72189Y-65803D01*
X72201Y-65839D01*
X72201Y-65863D01*
X72189Y-65898D01*
X72165Y-65922D01*
X72141Y-65934D01*
X72094Y-65946D01*
X72058Y-65946D01*
X72010Y-65934D01*
X71986Y-65922D01*
X71963Y-65898D01*
X71951Y-65863D01*
X71951Y-65839D01*
X71963Y-65803D01*
X71975Y-65791D01*
X72034Y-65577D02*
X72201Y-65577D01*
X71939Y-65636D02*
X72117Y-65696D01*
X72117Y-65541D01*
X73551Y-65898D02*
X73551Y-66041D01*
X73551Y-65970D02*
X73301Y-65970D01*
X73336Y-65994D01*
X73360Y-66017D01*
X73372Y-66041D01*
X73384Y-65684D02*
X73551Y-65684D01*
X73384Y-65791D02*
X73515Y-65791D01*
X73539Y-65779D01*
X73551Y-65755D01*
X73551Y-65720D01*
X73539Y-65696D01*
X73527Y-65684D01*
X73420Y-65482D02*
X73420Y-65565D01*
X73551Y-65565D02*
X73301Y-65565D01*
X73301Y-65446D01*
X79477Y-77541D02*
X79489Y-77553D01*
X79501Y-77589D01*
X79501Y-77613D01*
X79489Y-77648D01*
X79465Y-77672D01*
X79441Y-77684D01*
X79394Y-77696D01*
X79358Y-77696D01*
X79310Y-77684D01*
X79286Y-77672D01*
X79263Y-77648D01*
X79251Y-77613D01*
X79251Y-77589D01*
X79263Y-77553D01*
X79275Y-77541D01*
X79251Y-77458D02*
X79251Y-77291D01*
X79501Y-77398D01*
X78151Y-77648D02*
X78151Y-77791D01*
X78151Y-77720D02*
X77901Y-77720D01*
X77936Y-77744D01*
X77960Y-77767D01*
X77972Y-77791D01*
X77984Y-77434D02*
X78151Y-77434D01*
X77984Y-77541D02*
X78115Y-77541D01*
X78139Y-77529D01*
X78151Y-77505D01*
X78151Y-77470D01*
X78139Y-77446D01*
X78127Y-77434D01*
X78020Y-77232D02*
X78020Y-77315D01*
X78151Y-77315D02*
X77901Y-77315D01*
X77901Y-77196D01*
X73477Y-78041D02*
X73489Y-78053D01*
X73501Y-78089D01*
X73501Y-78113D01*
X73489Y-78148D01*
X73465Y-78172D01*
X73441Y-78184D01*
X73394Y-78196D01*
X73358Y-78196D01*
X73310Y-78184D01*
X73286Y-78172D01*
X73263Y-78148D01*
X73251Y-78113D01*
X73251Y-78089D01*
X73263Y-78053D01*
X73275Y-78041D01*
X73501Y-77922D02*
X73501Y-77875D01*
X73489Y-77851D01*
X73477Y-77839D01*
X73441Y-77815D01*
X73394Y-77803D01*
X73298Y-77803D01*
X73275Y-77815D01*
X73263Y-77827D01*
X73251Y-77851D01*
X73251Y-77898D01*
X73263Y-77922D01*
X73275Y-77934D01*
X73298Y-77946D01*
X73358Y-77946D01*
X73382Y-77934D01*
X73394Y-77922D01*
X73405Y-77898D01*
X73405Y-77851D01*
X73394Y-77827D01*
X73382Y-77815D01*
X73358Y-77803D01*
X72151Y-78148D02*
X72151Y-78291D01*
X72151Y-78220D02*
X71901Y-78220D01*
X71936Y-78244D01*
X71960Y-78267D01*
X71972Y-78291D01*
X71984Y-77934D02*
X72151Y-77934D01*
X71984Y-78041D02*
X72115Y-78041D01*
X72139Y-78029D01*
X72151Y-78005D01*
X72151Y-77970D01*
X72139Y-77946D01*
X72127Y-77934D01*
X72020Y-77732D02*
X72020Y-77815D01*
X72151Y-77815D02*
X71901Y-77815D01*
X71901Y-77696D01*
X77958Y-62177D02*
X77946Y-62189D01*
X77910Y-62201D01*
X77886Y-62201D01*
X77851Y-62189D01*
X77827Y-62165D01*
X77815Y-62141D01*
X77803Y-62094D01*
X77803Y-62058D01*
X77815Y-62010D01*
X77827Y-61986D01*
X77851Y-61963D01*
X77886Y-61951D01*
X77910Y-61951D01*
X77946Y-61963D01*
X77958Y-61975D01*
X78053Y-61975D02*
X78065Y-61963D01*
X78089Y-61951D01*
X78148Y-61951D01*
X78172Y-61963D01*
X78184Y-61975D01*
X78196Y-61998D01*
X78196Y-62022D01*
X78184Y-62058D01*
X78041Y-62201D01*
X78196Y-62201D01*
X77851Y-63551D02*
X77708Y-63551D01*
X77779Y-63551D02*
X77779Y-63301D01*
X77755Y-63336D01*
X77732Y-63360D01*
X77708Y-63372D01*
X78065Y-63384D02*
X78065Y-63551D01*
X77958Y-63384D02*
X77958Y-63515D01*
X77970Y-63539D01*
X77994Y-63551D01*
X78029Y-63551D01*
X78053Y-63539D01*
X78065Y-63527D01*
X78267Y-63420D02*
X78184Y-63420D01*
X78184Y-63551D02*
X78184Y-63301D01*
X78303Y-63301D01*
X70358Y-65827D02*
X70346Y-65839D01*
X70310Y-65851D01*
X70286Y-65851D01*
X70251Y-65839D01*
X70227Y-65815D01*
X70215Y-65791D01*
X70203Y-65744D01*
X70203Y-65708D01*
X70215Y-65660D01*
X70227Y-65636D01*
X70251Y-65613D01*
X70286Y-65601D01*
X70310Y-65601D01*
X70346Y-65613D01*
X70358Y-65625D01*
X70441Y-65601D02*
X70596Y-65601D01*
X70513Y-65696D01*
X70548Y-65696D01*
X70572Y-65708D01*
X70584Y-65720D01*
X70596Y-65744D01*
X70596Y-65803D01*
X70584Y-65827D01*
X70572Y-65839D01*
X70548Y-65851D01*
X70477Y-65851D01*
X70453Y-65839D01*
X70441Y-65827D01*
X69713Y-65451D02*
X69570Y-65451D01*
X69641Y-65451D02*
X69641Y-65201D01*
X69617Y-65236D01*
X69594Y-65260D01*
X69570Y-65272D01*
X69867Y-65201D02*
X69891Y-65201D01*
X69915Y-65213D01*
X69927Y-65225D01*
X69939Y-65248D01*
X69951Y-65296D01*
X69951Y-65355D01*
X69939Y-65403D01*
X69927Y-65427D01*
X69915Y-65439D01*
X69891Y-65451D01*
X69867Y-65451D01*
X69844Y-65439D01*
X69832Y-65427D01*
X69820Y-65403D01*
X69808Y-65355D01*
X69808Y-65296D01*
X69820Y-65248D01*
X69832Y-65225D01*
X69844Y-65213D01*
X69867Y-65201D01*
X70105Y-65201D02*
X70129Y-65201D01*
X70153Y-65213D01*
X70165Y-65225D01*
X70177Y-65248D01*
X70189Y-65296D01*
X70189Y-65355D01*
X70177Y-65403D01*
X70165Y-65427D01*
X70153Y-65439D01*
X70129Y-65451D01*
X70105Y-65451D01*
X70082Y-65439D01*
X70070Y-65427D01*
X70058Y-65403D01*
X70046Y-65355D01*
X70046Y-65296D01*
X70058Y-65248D01*
X70070Y-65225D01*
X70082Y-65213D01*
X70105Y-65201D01*
X70403Y-65284D02*
X70403Y-65451D01*
X70296Y-65284D02*
X70296Y-65415D01*
X70308Y-65439D01*
X70332Y-65451D01*
X70367Y-65451D01*
X70391Y-65439D01*
X70403Y-65427D01*
X70605Y-65320D02*
X70522Y-65320D01*
X70522Y-65451D02*
X70522Y-65201D01*
X70641Y-65201D01*
X68109Y-64223D02*
X68264Y-64223D01*
X68180Y-64318D01*
X68216Y-64318D01*
X68240Y-64330D01*
X68252Y-64342D01*
X68264Y-64366D01*
X68264Y-64425D01*
X68252Y-64449D01*
X68240Y-64461D01*
X68216Y-64473D01*
X68145Y-64473D01*
X68121Y-64461D01*
X68109Y-64449D01*
X68371Y-64449D02*
X68383Y-64461D01*
X68371Y-64473D01*
X68359Y-64461D01*
X68371Y-64449D01*
X68371Y-64473D01*
X68609Y-64223D02*
X68490Y-64223D01*
X68478Y-64342D01*
X68490Y-64330D01*
X68514Y-64318D01*
X68573Y-64318D01*
X68597Y-64330D01*
X68609Y-64342D01*
X68621Y-64366D01*
X68621Y-64425D01*
X68609Y-64449D01*
X68597Y-64461D01*
X68573Y-64473D01*
X68514Y-64473D01*
X68490Y-64461D01*
X68478Y-64449D01*
X68728Y-64473D02*
X68728Y-64306D01*
X68728Y-64330D02*
X68740Y-64318D01*
X68764Y-64306D01*
X68799Y-64306D01*
X68823Y-64318D01*
X68835Y-64342D01*
X68835Y-64473D01*
X68835Y-64342D02*
X68847Y-64318D01*
X68871Y-64306D01*
X68907Y-64306D01*
X68930Y-64318D01*
X68942Y-64342D01*
X68942Y-64473D01*
X69061Y-64473D02*
X69061Y-64306D01*
X69061Y-64330D02*
X69073Y-64318D01*
X69097Y-64306D01*
X69133Y-64306D01*
X69157Y-64318D01*
X69169Y-64342D01*
X69169Y-64473D01*
X69169Y-64342D02*
X69180Y-64318D01*
X69204Y-64306D01*
X69240Y-64306D01*
X69264Y-64318D01*
X69276Y-64342D01*
X69276Y-64473D01*
X67326Y-65601D02*
X67207Y-65601D01*
X67195Y-65720D01*
X67207Y-65708D01*
X67230Y-65696D01*
X67290Y-65696D01*
X67314Y-65708D01*
X67326Y-65720D01*
X67338Y-65744D01*
X67338Y-65803D01*
X67326Y-65827D01*
X67314Y-65839D01*
X67290Y-65851D01*
X67230Y-65851D01*
X67207Y-65839D01*
X67195Y-65827D01*
X67445Y-65851D02*
X67445Y-65684D01*
X67445Y-65708D02*
X67457Y-65696D01*
X67480Y-65684D01*
X67516Y-65684D01*
X67540Y-65696D01*
X67552Y-65720D01*
X67552Y-65851D01*
X67552Y-65720D02*
X67564Y-65696D01*
X67588Y-65684D01*
X67623Y-65684D01*
X67647Y-65696D01*
X67659Y-65720D01*
X67659Y-65851D01*
X67778Y-65851D02*
X67778Y-65684D01*
X67778Y-65708D02*
X67790Y-65696D01*
X67814Y-65684D01*
X67850Y-65684D01*
X67873Y-65696D01*
X67885Y-65720D01*
X67885Y-65851D01*
X67885Y-65720D02*
X67897Y-65696D01*
X67921Y-65684D01*
X67957Y-65684D01*
X67980Y-65696D01*
X67992Y-65720D01*
X67992Y-65851D01*
G54D15*
X69371Y-67164D02*
X69828Y-67164D01*
X69600Y-67392D02*
X69600Y-66935D01*
G54D14*
X81608Y-73827D02*
X81596Y-73839D01*
X81560Y-73851D01*
X81536Y-73851D01*
X81501Y-73839D01*
X81477Y-73815D01*
X81465Y-73791D01*
X81453Y-73744D01*
X81453Y-73708D01*
X81465Y-73660D01*
X81477Y-73636D01*
X81501Y-73613D01*
X81536Y-73601D01*
X81560Y-73601D01*
X81596Y-73613D01*
X81608Y-73625D01*
X81822Y-73601D02*
X81775Y-73601D01*
X81751Y-73613D01*
X81739Y-73625D01*
X81715Y-73660D01*
X81703Y-73708D01*
X81703Y-73803D01*
X81715Y-73827D01*
X81727Y-73839D01*
X81751Y-73851D01*
X81798Y-73851D01*
X81822Y-73839D01*
X81834Y-73827D01*
X81846Y-73803D01*
X81846Y-73744D01*
X81834Y-73720D01*
X81822Y-73708D01*
X81798Y-73696D01*
X81751Y-73696D01*
X81727Y-73708D01*
X81715Y-73720D01*
X81703Y-73744D01*
X80963Y-73451D02*
X80820Y-73451D01*
X80891Y-73451D02*
X80891Y-73201D01*
X80867Y-73236D01*
X80844Y-73260D01*
X80820Y-73272D01*
X81117Y-73201D02*
X81141Y-73201D01*
X81165Y-73213D01*
X81177Y-73225D01*
X81189Y-73248D01*
X81201Y-73296D01*
X81201Y-73355D01*
X81189Y-73403D01*
X81177Y-73427D01*
X81165Y-73439D01*
X81141Y-73451D01*
X81117Y-73451D01*
X81094Y-73439D01*
X81082Y-73427D01*
X81070Y-73403D01*
X81058Y-73355D01*
X81058Y-73296D01*
X81070Y-73248D01*
X81082Y-73225D01*
X81094Y-73213D01*
X81117Y-73201D01*
X81355Y-73201D02*
X81379Y-73201D01*
X81403Y-73213D01*
X81415Y-73225D01*
X81427Y-73248D01*
X81439Y-73296D01*
X81439Y-73355D01*
X81427Y-73403D01*
X81415Y-73427D01*
X81403Y-73439D01*
X81379Y-73451D01*
X81355Y-73451D01*
X81332Y-73439D01*
X81320Y-73427D01*
X81308Y-73403D01*
X81296Y-73355D01*
X81296Y-73296D01*
X81308Y-73248D01*
X81320Y-73225D01*
X81332Y-73213D01*
X81355Y-73201D01*
X81653Y-73284D02*
X81653Y-73451D01*
X81546Y-73284D02*
X81546Y-73415D01*
X81558Y-73439D01*
X81582Y-73451D01*
X81617Y-73451D01*
X81641Y-73439D01*
X81653Y-73427D01*
X81855Y-73320D02*
X81772Y-73320D01*
X81772Y-73451D02*
X81772Y-73201D01*
X81891Y-73201D01*
X79359Y-72223D02*
X79514Y-72223D01*
X79430Y-72318D01*
X79466Y-72318D01*
X79490Y-72330D01*
X79502Y-72342D01*
X79514Y-72366D01*
X79514Y-72425D01*
X79502Y-72449D01*
X79490Y-72461D01*
X79466Y-72473D01*
X79395Y-72473D01*
X79371Y-72461D01*
X79359Y-72449D01*
X79621Y-72449D02*
X79633Y-72461D01*
X79621Y-72473D01*
X79609Y-72461D01*
X79621Y-72449D01*
X79621Y-72473D01*
X79859Y-72223D02*
X79740Y-72223D01*
X79728Y-72342D01*
X79740Y-72330D01*
X79764Y-72318D01*
X79823Y-72318D01*
X79847Y-72330D01*
X79859Y-72342D01*
X79871Y-72366D01*
X79871Y-72425D01*
X79859Y-72449D01*
X79847Y-72461D01*
X79823Y-72473D01*
X79764Y-72473D01*
X79740Y-72461D01*
X79728Y-72449D01*
X79978Y-72473D02*
X79978Y-72306D01*
X79978Y-72330D02*
X79990Y-72318D01*
X80014Y-72306D01*
X80049Y-72306D01*
X80073Y-72318D01*
X80085Y-72342D01*
X80085Y-72473D01*
X80085Y-72342D02*
X80097Y-72318D01*
X80121Y-72306D01*
X80157Y-72306D01*
X80180Y-72318D01*
X80192Y-72342D01*
X80192Y-72473D01*
X80311Y-72473D02*
X80311Y-72306D01*
X80311Y-72330D02*
X80323Y-72318D01*
X80347Y-72306D01*
X80383Y-72306D01*
X80407Y-72318D01*
X80419Y-72342D01*
X80419Y-72473D01*
X80419Y-72342D02*
X80430Y-72318D01*
X80454Y-72306D01*
X80490Y-72306D01*
X80514Y-72318D01*
X80526Y-72342D01*
X80526Y-72473D01*
X78576Y-73601D02*
X78457Y-73601D01*
X78445Y-73720D01*
X78457Y-73708D01*
X78480Y-73696D01*
X78540Y-73696D01*
X78564Y-73708D01*
X78576Y-73720D01*
X78588Y-73744D01*
X78588Y-73803D01*
X78576Y-73827D01*
X78564Y-73839D01*
X78540Y-73851D01*
X78480Y-73851D01*
X78457Y-73839D01*
X78445Y-73827D01*
X78695Y-73851D02*
X78695Y-73684D01*
X78695Y-73708D02*
X78707Y-73696D01*
X78730Y-73684D01*
X78766Y-73684D01*
X78790Y-73696D01*
X78802Y-73720D01*
X78802Y-73851D01*
X78802Y-73720D02*
X78814Y-73696D01*
X78838Y-73684D01*
X78873Y-73684D01*
X78897Y-73696D01*
X78909Y-73720D01*
X78909Y-73851D01*
X79028Y-73851D02*
X79028Y-73684D01*
X79028Y-73708D02*
X79040Y-73696D01*
X79064Y-73684D01*
X79100Y-73684D01*
X79123Y-73696D01*
X79135Y-73720D01*
X79135Y-73851D01*
X79135Y-73720D02*
X79147Y-73696D01*
X79171Y-73684D01*
X79207Y-73684D01*
X79230Y-73696D01*
X79242Y-73720D01*
X79242Y-73851D01*
G54D15*
X80621Y-75164D02*
X81078Y-75164D01*
X80850Y-75392D02*
X80850Y-74935D01*
G54D14*
X67558Y-77577D02*
X67546Y-77589D01*
X67510Y-77601D01*
X67486Y-77601D01*
X67451Y-77589D01*
X67427Y-77565D01*
X67415Y-77541D01*
X67403Y-77494D01*
X67403Y-77458D01*
X67415Y-77410D01*
X67427Y-77386D01*
X67451Y-77363D01*
X67486Y-77351D01*
X67510Y-77351D01*
X67546Y-77363D01*
X67558Y-77375D01*
X67701Y-77458D02*
X67677Y-77446D01*
X67665Y-77434D01*
X67653Y-77410D01*
X67653Y-77398D01*
X67665Y-77375D01*
X67677Y-77363D01*
X67701Y-77351D01*
X67748Y-77351D01*
X67772Y-77363D01*
X67784Y-77375D01*
X67796Y-77398D01*
X67796Y-77410D01*
X67784Y-77434D01*
X67772Y-77446D01*
X67748Y-77458D01*
X67701Y-77458D01*
X67677Y-77470D01*
X67665Y-77482D01*
X67653Y-77505D01*
X67653Y-77553D01*
X67665Y-77577D01*
X67677Y-77589D01*
X67701Y-77601D01*
X67748Y-77601D01*
X67772Y-77589D01*
X67784Y-77577D01*
X67796Y-77553D01*
X67796Y-77505D01*
X67784Y-77482D01*
X67772Y-77470D01*
X67748Y-77458D01*
X67513Y-78001D02*
X67370Y-78001D01*
X67441Y-78001D02*
X67441Y-77751D01*
X67417Y-77786D01*
X67394Y-77810D01*
X67370Y-77822D01*
X67667Y-77751D02*
X67691Y-77751D01*
X67715Y-77763D01*
X67727Y-77775D01*
X67739Y-77798D01*
X67751Y-77846D01*
X67751Y-77905D01*
X67739Y-77953D01*
X67727Y-77977D01*
X67715Y-77989D01*
X67691Y-78001D01*
X67667Y-78001D01*
X67644Y-77989D01*
X67632Y-77977D01*
X67620Y-77953D01*
X67608Y-77905D01*
X67608Y-77846D01*
X67620Y-77798D01*
X67632Y-77775D01*
X67644Y-77763D01*
X67667Y-77751D01*
X67905Y-77751D02*
X67929Y-77751D01*
X67953Y-77763D01*
X67965Y-77775D01*
X67977Y-77798D01*
X67989Y-77846D01*
X67989Y-77905D01*
X67977Y-77953D01*
X67965Y-77977D01*
X67953Y-77989D01*
X67929Y-78001D01*
X67905Y-78001D01*
X67882Y-77989D01*
X67870Y-77977D01*
X67858Y-77953D01*
X67846Y-77905D01*
X67846Y-77846D01*
X67858Y-77798D01*
X67870Y-77775D01*
X67882Y-77763D01*
X67905Y-77751D01*
X68203Y-77834D02*
X68203Y-78001D01*
X68096Y-77834D02*
X68096Y-77965D01*
X68108Y-77989D01*
X68132Y-78001D01*
X68167Y-78001D01*
X68191Y-77989D01*
X68203Y-77977D01*
X68405Y-77870D02*
X68322Y-77870D01*
X68322Y-78001D02*
X68322Y-77751D01*
X68441Y-77751D01*
X68700Y-78729D02*
X68854Y-78729D01*
X68771Y-78824D01*
X68807Y-78824D01*
X68830Y-78836D01*
X68842Y-78848D01*
X68854Y-78872D01*
X68854Y-78931D01*
X68842Y-78955D01*
X68830Y-78967D01*
X68807Y-78979D01*
X68735Y-78979D01*
X68711Y-78967D01*
X68700Y-78955D01*
X68961Y-78955D02*
X68973Y-78967D01*
X68961Y-78979D01*
X68950Y-78967D01*
X68961Y-78955D01*
X68961Y-78979D01*
X69200Y-78729D02*
X69080Y-78729D01*
X69069Y-78848D01*
X69080Y-78836D01*
X69104Y-78824D01*
X69164Y-78824D01*
X69188Y-78836D01*
X69200Y-78848D01*
X69211Y-78872D01*
X69211Y-78931D01*
X69200Y-78955D01*
X69188Y-78967D01*
X69164Y-78979D01*
X69104Y-78979D01*
X69080Y-78967D01*
X69069Y-78955D01*
X69319Y-78979D02*
X69319Y-78812D01*
X69319Y-78836D02*
X69330Y-78824D01*
X69354Y-78812D01*
X69390Y-78812D01*
X69414Y-78824D01*
X69426Y-78848D01*
X69426Y-78979D01*
X69426Y-78848D02*
X69438Y-78824D01*
X69461Y-78812D01*
X69497Y-78812D01*
X69521Y-78824D01*
X69533Y-78848D01*
X69533Y-78979D01*
X69652Y-78979D02*
X69652Y-78812D01*
X69652Y-78836D02*
X69664Y-78824D01*
X69688Y-78812D01*
X69723Y-78812D01*
X69747Y-78824D01*
X69759Y-78848D01*
X69759Y-78979D01*
X69759Y-78848D02*
X69771Y-78824D01*
X69795Y-78812D01*
X69830Y-78812D01*
X69854Y-78824D01*
X69866Y-78848D01*
X69866Y-78979D01*
X70126Y-77351D02*
X70007Y-77351D01*
X69995Y-77470D01*
X70007Y-77458D01*
X70030Y-77446D01*
X70090Y-77446D01*
X70114Y-77458D01*
X70126Y-77470D01*
X70138Y-77494D01*
X70138Y-77553D01*
X70126Y-77577D01*
X70114Y-77589D01*
X70090Y-77601D01*
X70030Y-77601D01*
X70007Y-77589D01*
X69995Y-77577D01*
X70245Y-77601D02*
X70245Y-77434D01*
X70245Y-77458D02*
X70257Y-77446D01*
X70280Y-77434D01*
X70316Y-77434D01*
X70340Y-77446D01*
X70352Y-77470D01*
X70352Y-77601D01*
X70352Y-77470D02*
X70364Y-77446D01*
X70388Y-77434D01*
X70423Y-77434D01*
X70447Y-77446D01*
X70459Y-77470D01*
X70459Y-77601D01*
X70578Y-77601D02*
X70578Y-77434D01*
X70578Y-77458D02*
X70590Y-77446D01*
X70614Y-77434D01*
X70650Y-77434D01*
X70673Y-77446D01*
X70685Y-77470D01*
X70685Y-77601D01*
X70685Y-77470D02*
X70697Y-77446D01*
X70721Y-77434D01*
X70757Y-77434D01*
X70780Y-77446D01*
X70792Y-77470D01*
X70792Y-77601D01*
G54D15*
X68171Y-76114D02*
X68628Y-76114D01*
X68400Y-76342D02*
X68400Y-75885D01*
G54D14*
X81577Y-66691D02*
X81589Y-66703D01*
X81601Y-66739D01*
X81601Y-66763D01*
X81589Y-66798D01*
X81565Y-66822D01*
X81541Y-66834D01*
X81494Y-66846D01*
X81458Y-66846D01*
X81410Y-66834D01*
X81386Y-66822D01*
X81363Y-66798D01*
X81351Y-66763D01*
X81351Y-66739D01*
X81363Y-66703D01*
X81375Y-66691D01*
X81601Y-66453D02*
X81601Y-66596D01*
X81601Y-66525D02*
X81351Y-66525D01*
X81386Y-66548D01*
X81410Y-66572D01*
X81422Y-66596D01*
X82001Y-66736D02*
X82001Y-66879D01*
X82001Y-66808D02*
X81751Y-66808D01*
X81786Y-66832D01*
X81810Y-66855D01*
X81822Y-66879D01*
X81751Y-66582D02*
X81751Y-66558D01*
X81763Y-66534D01*
X81775Y-66522D01*
X81798Y-66510D01*
X81846Y-66498D01*
X81905Y-66498D01*
X81953Y-66510D01*
X81977Y-66522D01*
X81989Y-66534D01*
X82001Y-66558D01*
X82001Y-66582D01*
X81989Y-66605D01*
X81977Y-66617D01*
X81953Y-66629D01*
X81905Y-66641D01*
X81846Y-66641D01*
X81798Y-66629D01*
X81775Y-66617D01*
X81763Y-66605D01*
X81751Y-66582D01*
X81751Y-66344D02*
X81751Y-66320D01*
X81763Y-66296D01*
X81775Y-66284D01*
X81798Y-66272D01*
X81846Y-66260D01*
X81905Y-66260D01*
X81953Y-66272D01*
X81977Y-66284D01*
X81989Y-66296D01*
X82001Y-66320D01*
X82001Y-66344D01*
X81989Y-66367D01*
X81977Y-66379D01*
X81953Y-66391D01*
X81905Y-66403D01*
X81846Y-66403D01*
X81798Y-66391D01*
X81775Y-66379D01*
X81763Y-66367D01*
X81751Y-66344D01*
X81834Y-66046D02*
X82001Y-66046D01*
X81834Y-66153D02*
X81965Y-66153D01*
X81989Y-66141D01*
X82001Y-66117D01*
X82001Y-66082D01*
X81989Y-66058D01*
X81977Y-66046D01*
X81870Y-65844D02*
X81870Y-65927D01*
X82001Y-65927D02*
X81751Y-65927D01*
X81751Y-65808D01*
X82729Y-65549D02*
X82729Y-65395D01*
X82824Y-65478D01*
X82824Y-65442D01*
X82836Y-65419D01*
X82848Y-65407D01*
X82872Y-65395D01*
X82931Y-65395D01*
X82955Y-65407D01*
X82967Y-65419D01*
X82979Y-65442D01*
X82979Y-65514D01*
X82967Y-65538D01*
X82955Y-65549D01*
X82955Y-65288D02*
X82967Y-65276D01*
X82979Y-65288D01*
X82967Y-65299D01*
X82955Y-65288D01*
X82979Y-65288D01*
X82729Y-65049D02*
X82729Y-65169D01*
X82848Y-65180D01*
X82836Y-65169D01*
X82824Y-65145D01*
X82824Y-65085D01*
X82836Y-65061D01*
X82848Y-65049D01*
X82872Y-65038D01*
X82931Y-65038D01*
X82955Y-65049D01*
X82967Y-65061D01*
X82979Y-65085D01*
X82979Y-65145D01*
X82967Y-65169D01*
X82955Y-65180D01*
X82979Y-64930D02*
X82812Y-64930D01*
X82836Y-64930D02*
X82824Y-64919D01*
X82812Y-64895D01*
X82812Y-64859D01*
X82824Y-64835D01*
X82848Y-64823D01*
X82979Y-64823D01*
X82848Y-64823D02*
X82824Y-64811D01*
X82812Y-64788D01*
X82812Y-64752D01*
X82824Y-64728D01*
X82848Y-64716D01*
X82979Y-64716D01*
X82979Y-64597D02*
X82812Y-64597D01*
X82836Y-64597D02*
X82824Y-64585D01*
X82812Y-64561D01*
X82812Y-64526D01*
X82824Y-64502D01*
X82848Y-64490D01*
X82979Y-64490D01*
X82848Y-64490D02*
X82824Y-64478D01*
X82812Y-64454D01*
X82812Y-64419D01*
X82824Y-64395D01*
X82848Y-64383D01*
X82979Y-64383D01*
X81351Y-64123D02*
X81351Y-64242D01*
X81470Y-64254D01*
X81458Y-64242D01*
X81446Y-64219D01*
X81446Y-64159D01*
X81458Y-64135D01*
X81470Y-64123D01*
X81494Y-64111D01*
X81553Y-64111D01*
X81577Y-64123D01*
X81589Y-64135D01*
X81601Y-64159D01*
X81601Y-64219D01*
X81589Y-64242D01*
X81577Y-64254D01*
X81601Y-64004D02*
X81434Y-64004D01*
X81458Y-64004D02*
X81446Y-63992D01*
X81434Y-63969D01*
X81434Y-63933D01*
X81446Y-63909D01*
X81470Y-63897D01*
X81601Y-63897D01*
X81470Y-63897D02*
X81446Y-63885D01*
X81434Y-63861D01*
X81434Y-63826D01*
X81446Y-63802D01*
X81470Y-63790D01*
X81601Y-63790D01*
X81601Y-63671D02*
X81434Y-63671D01*
X81458Y-63671D02*
X81446Y-63659D01*
X81434Y-63635D01*
X81434Y-63600D01*
X81446Y-63576D01*
X81470Y-63564D01*
X81601Y-63564D01*
X81470Y-63564D02*
X81446Y-63552D01*
X81434Y-63528D01*
X81434Y-63492D01*
X81446Y-63469D01*
X81470Y-63457D01*
X81601Y-63457D01*
G54D15*
X80114Y-66078D02*
X80114Y-65621D01*
X80342Y-65849D02*
X79885Y-65849D01*
G54D14*
X72434Y-75601D02*
X72577Y-75601D01*
X72505Y-75851D02*
X72505Y-75601D01*
X72660Y-75851D02*
X72660Y-75601D01*
X72755Y-75601D01*
X72779Y-75613D01*
X72791Y-75625D01*
X72803Y-75648D01*
X72803Y-75684D01*
X72791Y-75708D01*
X72779Y-75720D01*
X72755Y-75732D01*
X72660Y-75732D01*
X73017Y-75684D02*
X73017Y-75851D01*
X72958Y-75589D02*
X72898Y-75767D01*
X73053Y-75767D01*
X77351Y-74315D02*
X77351Y-74172D01*
X77601Y-74244D02*
X77351Y-74244D01*
X77601Y-74089D02*
X77351Y-74089D01*
X77351Y-73994D01*
X77363Y-73970D01*
X77375Y-73958D01*
X77398Y-73946D01*
X77434Y-73946D01*
X77458Y-73958D01*
X77470Y-73970D01*
X77482Y-73994D01*
X77482Y-74089D01*
X77351Y-73863D02*
X77351Y-73708D01*
X77446Y-73791D01*
X77446Y-73755D01*
X77458Y-73732D01*
X77470Y-73720D01*
X77494Y-73708D01*
X77553Y-73708D01*
X77577Y-73720D01*
X77589Y-73732D01*
X77601Y-73755D01*
X77601Y-73827D01*
X77589Y-73851D01*
X77577Y-73863D01*
X64601Y-65065D02*
X64601Y-64922D01*
X64851Y-64994D02*
X64601Y-64994D01*
X64851Y-64839D02*
X64601Y-64839D01*
X64601Y-64744D01*
X64613Y-64720D01*
X64625Y-64708D01*
X64648Y-64696D01*
X64684Y-64696D01*
X64708Y-64708D01*
X64720Y-64720D01*
X64732Y-64744D01*
X64732Y-64839D01*
X64625Y-64601D02*
X64613Y-64589D01*
X64601Y-64565D01*
X64601Y-64505D01*
X64613Y-64482D01*
X64625Y-64470D01*
X64648Y-64458D01*
X64672Y-64458D01*
X64708Y-64470D01*
X64851Y-64613D01*
X64851Y-64458D01*
X77684Y-60351D02*
X77827Y-60351D01*
X77755Y-60601D02*
X77755Y-60351D01*
X77910Y-60601D02*
X77910Y-60351D01*
X78005Y-60351D01*
X78029Y-60363D01*
X78041Y-60375D01*
X78053Y-60398D01*
X78053Y-60434D01*
X78041Y-60458D01*
X78029Y-60470D01*
X78005Y-60482D01*
X77910Y-60482D01*
X78291Y-60601D02*
X78148Y-60601D01*
X78220Y-60601D02*
X78220Y-60351D01*
X78196Y-60386D01*
X78172Y-60410D01*
X78148Y-60422D01*
X67927Y-72241D02*
X67939Y-72253D01*
X67951Y-72289D01*
X67951Y-72313D01*
X67939Y-72348D01*
X67915Y-72372D01*
X67891Y-72384D01*
X67844Y-72396D01*
X67808Y-72396D01*
X67760Y-72384D01*
X67736Y-72372D01*
X67713Y-72348D01*
X67701Y-72313D01*
X67701Y-72289D01*
X67713Y-72253D01*
X67725Y-72241D01*
X67701Y-72015D02*
X67701Y-72134D01*
X67820Y-72146D01*
X67808Y-72134D01*
X67796Y-72110D01*
X67796Y-72051D01*
X67808Y-72027D01*
X67820Y-72015D01*
X67844Y-72003D01*
X67903Y-72003D01*
X67927Y-72015D01*
X67939Y-72027D01*
X67951Y-72051D01*
X67951Y-72110D01*
X67939Y-72134D01*
X67927Y-72146D01*
X68226Y-69201D02*
X68369Y-69201D01*
X68297Y-69451D02*
X68297Y-69201D01*
X68452Y-69451D02*
X68452Y-69201D01*
X68571Y-69451D02*
X68571Y-69201D01*
X68654Y-69379D01*
X68738Y-69201D01*
X68738Y-69451D01*
G54D11*
X76857Y-71121D02*
X76757Y-70978D01*
X76685Y-71121D02*
X76685Y-70821D01*
X76800Y-70821D01*
X76828Y-70835D01*
X76842Y-70850D01*
X76857Y-70878D01*
X76857Y-70921D01*
X76842Y-70950D01*
X76828Y-70964D01*
X76800Y-70978D01*
X76685Y-70978D01*
X77142Y-71121D02*
X76971Y-71121D01*
X77057Y-71121D02*
X77057Y-70821D01*
X77028Y-70864D01*
X77000Y-70892D01*
X76971Y-70907D01*
X77428Y-71121D02*
X77257Y-71121D01*
X77342Y-71121D02*
X77342Y-70821D01*
X77314Y-70864D01*
X77285Y-70892D01*
X77257Y-70907D01*
X75078Y-70850D02*
X75092Y-70835D01*
X75121Y-70821D01*
X75192Y-70821D01*
X75221Y-70835D01*
X75235Y-70850D01*
X75250Y-70878D01*
X75250Y-70907D01*
X75235Y-70950D01*
X75064Y-71121D01*
X75250Y-71121D01*
X75364Y-70850D02*
X75378Y-70835D01*
X75407Y-70821D01*
X75478Y-70821D01*
X75507Y-70835D01*
X75521Y-70850D01*
X75535Y-70878D01*
X75535Y-70907D01*
X75521Y-70950D01*
X75350Y-71121D01*
X75535Y-71121D01*
X75721Y-70821D02*
X75750Y-70821D01*
X75778Y-70835D01*
X75792Y-70850D01*
X75807Y-70878D01*
X75821Y-70935D01*
X75821Y-71007D01*
X75807Y-71064D01*
X75792Y-71092D01*
X75778Y-71107D01*
X75750Y-71121D01*
X75721Y-71121D01*
X75692Y-71107D01*
X75678Y-71092D01*
X75664Y-71064D01*
X75650Y-71007D01*
X75650Y-70935D01*
X75664Y-70878D01*
X75678Y-70850D01*
X75692Y-70835D01*
X75721Y-70821D01*
G54D14*
X75089Y-72177D02*
X75077Y-72189D01*
X75041Y-72201D01*
X75017Y-72201D01*
X74982Y-72189D01*
X74958Y-72165D01*
X74946Y-72141D01*
X74934Y-72094D01*
X74934Y-72058D01*
X74946Y-72010D01*
X74958Y-71986D01*
X74982Y-71963D01*
X75017Y-71951D01*
X75041Y-71951D01*
X75077Y-71963D01*
X75089Y-71975D01*
X75327Y-72201D02*
X75184Y-72201D01*
X75255Y-72201D02*
X75255Y-71951D01*
X75232Y-71986D01*
X75208Y-72010D01*
X75184Y-72022D01*
X75482Y-71951D02*
X75505Y-71951D01*
X75529Y-71963D01*
X75541Y-71975D01*
X75553Y-71998D01*
X75565Y-72046D01*
X75565Y-72105D01*
X75553Y-72153D01*
X75541Y-72177D01*
X75529Y-72189D01*
X75505Y-72201D01*
X75482Y-72201D01*
X75458Y-72189D01*
X75446Y-72177D01*
X75434Y-72153D01*
X75422Y-72105D01*
X75422Y-72046D01*
X75434Y-71998D01*
X75446Y-71975D01*
X75458Y-71963D01*
X75482Y-71951D01*
X74839Y-72301D02*
X74863Y-72301D01*
X74886Y-72313D01*
X74898Y-72325D01*
X74910Y-72348D01*
X74922Y-72396D01*
X74922Y-72455D01*
X74910Y-72503D01*
X74898Y-72527D01*
X74886Y-72539D01*
X74863Y-72551D01*
X74839Y-72551D01*
X74815Y-72539D01*
X74803Y-72527D01*
X74791Y-72503D01*
X74779Y-72455D01*
X74779Y-72396D01*
X74791Y-72348D01*
X74803Y-72325D01*
X74815Y-72313D01*
X74839Y-72301D01*
X75029Y-72527D02*
X75041Y-72539D01*
X75029Y-72551D01*
X75017Y-72539D01*
X75029Y-72527D01*
X75029Y-72551D01*
X75279Y-72551D02*
X75136Y-72551D01*
X75208Y-72551D02*
X75208Y-72301D01*
X75184Y-72336D01*
X75160Y-72360D01*
X75136Y-72372D01*
X75494Y-72384D02*
X75494Y-72551D01*
X75386Y-72384D02*
X75386Y-72515D01*
X75398Y-72539D01*
X75422Y-72551D01*
X75458Y-72551D01*
X75482Y-72539D01*
X75494Y-72527D01*
X75696Y-72420D02*
X75613Y-72420D01*
X75613Y-72551D02*
X75613Y-72301D01*
X75732Y-72301D01*
M02*
